%TF.GenerationSoftware,KiCad,Pcbnew,7.0.10+1*%
%TF.CreationDate,2024-01-16T19:36:20+01:00*%
%TF.ProjectId,trump_card_4floppy_addon,7472756d-705f-4636-9172-645f34666c6f,00*%
%TF.SameCoordinates,Original*%
%TF.FileFunction,Copper,L2,Bot*%
%TF.FilePolarity,Positive*%
%FSLAX46Y46*%
G04 Gerber Fmt 4.6, Leading zero omitted, Abs format (unit mm)*
G04 Created by KiCad (PCBNEW 7.0.10+1) date 2024-01-16 19:36:20*
%MOMM*%
%LPD*%
G01*
G04 APERTURE LIST*
G04 Aperture macros list*
%AMRoundRect*
0 Rectangle with rounded corners*
0 $1 Rounding radius*
0 $2 $3 $4 $5 $6 $7 $8 $9 X,Y pos of 4 corners*
0 Add a 4 corners polygon primitive as box body*
4,1,4,$2,$3,$4,$5,$6,$7,$8,$9,$2,$3,0*
0 Add four circle primitives for the rounded corners*
1,1,$1+$1,$2,$3*
1,1,$1+$1,$4,$5*
1,1,$1+$1,$6,$7*
1,1,$1+$1,$8,$9*
0 Add four rect primitives between the rounded corners*
20,1,$1+$1,$2,$3,$4,$5,0*
20,1,$1+$1,$4,$5,$6,$7,0*
20,1,$1+$1,$6,$7,$8,$9,0*
20,1,$1+$1,$8,$9,$2,$3,0*%
G04 Aperture macros list end*
%ADD10C,0.250000*%
%TA.AperFunction,NonConductor*%
%ADD11C,0.250000*%
%TD*%
%ADD12C,0.281250*%
%TA.AperFunction,NonConductor*%
%ADD13C,0.281250*%
%TD*%
%TA.AperFunction,ComponentPad*%
%ADD14R,1.700000X1.700000*%
%TD*%
%TA.AperFunction,ComponentPad*%
%ADD15O,1.700000X1.700000*%
%TD*%
%TA.AperFunction,ComponentPad*%
%ADD16R,1.600000X1.600000*%
%TD*%
%TA.AperFunction,ComponentPad*%
%ADD17O,1.600000X1.600000*%
%TD*%
%TA.AperFunction,ComponentPad*%
%ADD18C,2.000000*%
%TD*%
%TA.AperFunction,ComponentPad*%
%ADD19C,1.700000*%
%TD*%
%TA.AperFunction,SMDPad,CuDef*%
%ADD20RoundRect,0.317500X-1.532500X-0.317500X1.532500X-0.317500X1.532500X0.317500X-1.532500X0.317500X0*%
%TD*%
%TA.AperFunction,Conductor*%
%ADD21C,0.250000*%
%TD*%
%TA.AperFunction,Conductor*%
%ADD22C,1.270000*%
%TD*%
G04 APERTURE END LIST*
D10*
D11*
X161305666Y-72082619D02*
X161638999Y-71606428D01*
X161877094Y-72082619D02*
X161877094Y-71082619D01*
X161877094Y-71082619D02*
X161496142Y-71082619D01*
X161496142Y-71082619D02*
X161400904Y-71130238D01*
X161400904Y-71130238D02*
X161353285Y-71177857D01*
X161353285Y-71177857D02*
X161305666Y-71273095D01*
X161305666Y-71273095D02*
X161305666Y-71415952D01*
X161305666Y-71415952D02*
X161353285Y-71511190D01*
X161353285Y-71511190D02*
X161400904Y-71558809D01*
X161400904Y-71558809D02*
X161496142Y-71606428D01*
X161496142Y-71606428D02*
X161877094Y-71606428D01*
X160877094Y-71558809D02*
X160543761Y-71558809D01*
X160400904Y-72082619D02*
X160877094Y-72082619D01*
X160877094Y-72082619D02*
X160877094Y-71082619D01*
X160877094Y-71082619D02*
X160400904Y-71082619D01*
X159972332Y-72082619D02*
X159972332Y-71082619D01*
X159972332Y-71082619D02*
X159591380Y-71082619D01*
X159591380Y-71082619D02*
X159496142Y-71130238D01*
X159496142Y-71130238D02*
X159448523Y-71177857D01*
X159448523Y-71177857D02*
X159400904Y-71273095D01*
X159400904Y-71273095D02*
X159400904Y-71415952D01*
X159400904Y-71415952D02*
X159448523Y-71511190D01*
X159448523Y-71511190D02*
X159496142Y-71558809D01*
X159496142Y-71558809D02*
X159591380Y-71606428D01*
X159591380Y-71606428D02*
X159972332Y-71606428D01*
X158400904Y-72082619D02*
X158734237Y-71606428D01*
X158972332Y-72082619D02*
X158972332Y-71082619D01*
X158972332Y-71082619D02*
X158591380Y-71082619D01*
X158591380Y-71082619D02*
X158496142Y-71130238D01*
X158496142Y-71130238D02*
X158448523Y-71177857D01*
X158448523Y-71177857D02*
X158400904Y-71273095D01*
X158400904Y-71273095D02*
X158400904Y-71415952D01*
X158400904Y-71415952D02*
X158448523Y-71511190D01*
X158448523Y-71511190D02*
X158496142Y-71558809D01*
X158496142Y-71558809D02*
X158591380Y-71606428D01*
X158591380Y-71606428D02*
X158972332Y-71606428D01*
X157781856Y-71082619D02*
X157591380Y-71082619D01*
X157591380Y-71082619D02*
X157496142Y-71130238D01*
X157496142Y-71130238D02*
X157400904Y-71225476D01*
X157400904Y-71225476D02*
X157353285Y-71415952D01*
X157353285Y-71415952D02*
X157353285Y-71749285D01*
X157353285Y-71749285D02*
X157400904Y-71939761D01*
X157400904Y-71939761D02*
X157496142Y-72035000D01*
X157496142Y-72035000D02*
X157591380Y-72082619D01*
X157591380Y-72082619D02*
X157781856Y-72082619D01*
X157781856Y-72082619D02*
X157877094Y-72035000D01*
X157877094Y-72035000D02*
X157972332Y-71939761D01*
X157972332Y-71939761D02*
X158019951Y-71749285D01*
X158019951Y-71749285D02*
X158019951Y-71415952D01*
X158019951Y-71415952D02*
X157972332Y-71225476D01*
X157972332Y-71225476D02*
X157877094Y-71130238D01*
X157877094Y-71130238D02*
X157781856Y-71082619D01*
X159996142Y-73168809D02*
X159853285Y-73216428D01*
X159853285Y-73216428D02*
X159805666Y-73264047D01*
X159805666Y-73264047D02*
X159758047Y-73359285D01*
X159758047Y-73359285D02*
X159758047Y-73502142D01*
X159758047Y-73502142D02*
X159805666Y-73597380D01*
X159805666Y-73597380D02*
X159853285Y-73645000D01*
X159853285Y-73645000D02*
X159948523Y-73692619D01*
X159948523Y-73692619D02*
X160329475Y-73692619D01*
X160329475Y-73692619D02*
X160329475Y-72692619D01*
X160329475Y-72692619D02*
X159996142Y-72692619D01*
X159996142Y-72692619D02*
X159900904Y-72740238D01*
X159900904Y-72740238D02*
X159853285Y-72787857D01*
X159853285Y-72787857D02*
X159805666Y-72883095D01*
X159805666Y-72883095D02*
X159805666Y-72978333D01*
X159805666Y-72978333D02*
X159853285Y-73073571D01*
X159853285Y-73073571D02*
X159900904Y-73121190D01*
X159900904Y-73121190D02*
X159996142Y-73168809D01*
X159996142Y-73168809D02*
X160329475Y-73168809D01*
X159138999Y-73216428D02*
X159138999Y-73692619D01*
X159472332Y-72692619D02*
X159138999Y-73216428D01*
X159138999Y-73216428D02*
X158805666Y-72692619D01*
X161162809Y-75016904D02*
X160686619Y-75016904D01*
X161258047Y-75302619D02*
X160924714Y-74302619D01*
X160924714Y-74302619D02*
X160591381Y-75302619D01*
X159781857Y-75302619D02*
X160258047Y-75302619D01*
X160258047Y-75302619D02*
X160258047Y-74302619D01*
X159448523Y-74778809D02*
X159115190Y-74778809D01*
X158972333Y-75302619D02*
X159448523Y-75302619D01*
X159448523Y-75302619D02*
X159448523Y-74302619D01*
X159448523Y-74302619D02*
X158972333Y-74302619D01*
X158591380Y-75016904D02*
X158115190Y-75016904D01*
X158686618Y-75302619D02*
X158353285Y-74302619D01*
X158353285Y-74302619D02*
X158019952Y-75302619D01*
D12*
D13*
G36*
X128504391Y-72180895D02*
G01*
X128504391Y-72431000D01*
X129836003Y-72431000D01*
X129836087Y-72408392D01*
X129835118Y-72385998D01*
X129833095Y-72363817D01*
X129830019Y-72341851D01*
X129825890Y-72320098D01*
X129820707Y-72298559D01*
X129814471Y-72277233D01*
X129807182Y-72256122D01*
X129797120Y-72230236D01*
X129785985Y-72204418D01*
X129773776Y-72178670D01*
X129760494Y-72152990D01*
X129746138Y-72127379D01*
X129735972Y-72110343D01*
X129725328Y-72093338D01*
X129714207Y-72076363D01*
X129702610Y-72059418D01*
X129690535Y-72042505D01*
X129677983Y-72025621D01*
X129664954Y-72008768D01*
X129651448Y-71991946D01*
X129644517Y-71983547D01*
X129630085Y-71966618D01*
X129614879Y-71949414D01*
X129598899Y-71931935D01*
X129582143Y-71914182D01*
X129564613Y-71896153D01*
X129546308Y-71877851D01*
X129527229Y-71859273D01*
X129507374Y-71840420D01*
X129486745Y-71821293D01*
X129465342Y-71801891D01*
X129443163Y-71782214D01*
X129420210Y-71762263D01*
X129396482Y-71742036D01*
X129371980Y-71721535D01*
X129346703Y-71700759D01*
X129320651Y-71679709D01*
X129300342Y-71663333D01*
X129280450Y-71647180D01*
X129260973Y-71631250D01*
X129241913Y-71615541D01*
X129223268Y-71600055D01*
X129205040Y-71584792D01*
X129187227Y-71569750D01*
X129169831Y-71554931D01*
X129152850Y-71540334D01*
X129136285Y-71525960D01*
X129120137Y-71511807D01*
X129104404Y-71497877D01*
X129089087Y-71484170D01*
X129074187Y-71470684D01*
X129059702Y-71457421D01*
X129031980Y-71431562D01*
X129005923Y-71406592D01*
X128981529Y-71382511D01*
X128958799Y-71359320D01*
X128937733Y-71337017D01*
X128918331Y-71315604D01*
X128900593Y-71295080D01*
X128884519Y-71275445D01*
X128877106Y-71265961D01*
X128863086Y-71247221D01*
X128849972Y-71228615D01*
X128837761Y-71210142D01*
X128826456Y-71191803D01*
X128816054Y-71173597D01*
X128806558Y-71155525D01*
X128797965Y-71137587D01*
X128786772Y-71110929D01*
X128777615Y-71084573D01*
X128770492Y-71058516D01*
X128765405Y-71032761D01*
X128762352Y-71007306D01*
X128761334Y-70982151D01*
X128762258Y-70956251D01*
X128765027Y-70931123D01*
X128769642Y-70906769D01*
X128776104Y-70883187D01*
X128784411Y-70860378D01*
X128794565Y-70838342D01*
X128806565Y-70817078D01*
X128820411Y-70796587D01*
X128836103Y-70776870D01*
X128853641Y-70757925D01*
X128866359Y-70745724D01*
X128886618Y-70728439D01*
X128908010Y-70712854D01*
X128930536Y-70698969D01*
X128954195Y-70686785D01*
X128978987Y-70676301D01*
X129004913Y-70667517D01*
X129031973Y-70660433D01*
X129060166Y-70655049D01*
X129079591Y-70652404D01*
X129099519Y-70650515D01*
X129119952Y-70649382D01*
X129140888Y-70649004D01*
X129162898Y-70649361D01*
X129184355Y-70650431D01*
X129205259Y-70652215D01*
X129225610Y-70654713D01*
X129245407Y-70657924D01*
X129264650Y-70661849D01*
X129292478Y-70669075D01*
X129319061Y-70677906D01*
X129344399Y-70688343D01*
X129368492Y-70700386D01*
X129391339Y-70714035D01*
X129412942Y-70729289D01*
X129426652Y-70740351D01*
X129445783Y-70758092D01*
X129463059Y-70777061D01*
X129478481Y-70797259D01*
X129492048Y-70818684D01*
X129503760Y-70841337D01*
X129513618Y-70865218D01*
X129521620Y-70890327D01*
X129527769Y-70916663D01*
X129532062Y-70944228D01*
X129534500Y-70973020D01*
X129535096Y-70992898D01*
X129789108Y-70961635D01*
X129785307Y-70927828D01*
X129780377Y-70895040D01*
X129774316Y-70863271D01*
X129767127Y-70832522D01*
X129758807Y-70802791D01*
X129749358Y-70774079D01*
X129738779Y-70746386D01*
X129727071Y-70719712D01*
X129714233Y-70694057D01*
X129700265Y-70669421D01*
X129685168Y-70645804D01*
X129668941Y-70623206D01*
X129651584Y-70601626D01*
X129633098Y-70581066D01*
X129613482Y-70561525D01*
X129592737Y-70543002D01*
X129570971Y-70525552D01*
X129548293Y-70509228D01*
X129524702Y-70494030D01*
X129500200Y-70479957D01*
X129474785Y-70467010D01*
X129448458Y-70455189D01*
X129421219Y-70444494D01*
X129393069Y-70434925D01*
X129364006Y-70426481D01*
X129334031Y-70419164D01*
X129303143Y-70412972D01*
X129271344Y-70407905D01*
X129238633Y-70403965D01*
X129205009Y-70401151D01*
X129170474Y-70399462D01*
X129135026Y-70398899D01*
X129099288Y-70399536D01*
X129064493Y-70401448D01*
X129030641Y-70404635D01*
X128997731Y-70409096D01*
X128965764Y-70414832D01*
X128934739Y-70421843D01*
X128904657Y-70430128D01*
X128875518Y-70439688D01*
X128847321Y-70450522D01*
X128820067Y-70462631D01*
X128793756Y-70476015D01*
X128768387Y-70490673D01*
X128743961Y-70506606D01*
X128720477Y-70523814D01*
X128697936Y-70542296D01*
X128676338Y-70562053D01*
X128655871Y-70582692D01*
X128636725Y-70603941D01*
X128618899Y-70625801D01*
X128602393Y-70648271D01*
X128587208Y-70671352D01*
X128573344Y-70695043D01*
X128560800Y-70719346D01*
X128549576Y-70744258D01*
X128539673Y-70769782D01*
X128531090Y-70795916D01*
X128523827Y-70822660D01*
X128517885Y-70850016D01*
X128513264Y-70877981D01*
X128509963Y-70906558D01*
X128507982Y-70935745D01*
X128507322Y-70965542D01*
X128507756Y-70988497D01*
X128509056Y-71011384D01*
X128511225Y-71034201D01*
X128514260Y-71056950D01*
X128518163Y-71079631D01*
X128522932Y-71102242D01*
X128528570Y-71124785D01*
X128535074Y-71147259D01*
X128542446Y-71169665D01*
X128550685Y-71192001D01*
X128556659Y-71206854D01*
X128566485Y-71229131D01*
X128577462Y-71251631D01*
X128589589Y-71274354D01*
X128602867Y-71297301D01*
X128617295Y-71320470D01*
X128632874Y-71343863D01*
X128649604Y-71367479D01*
X128661396Y-71383347D01*
X128673700Y-71399315D01*
X128686515Y-71415381D01*
X128699842Y-71431547D01*
X128713679Y-71447812D01*
X128720790Y-71455982D01*
X128735731Y-71472688D01*
X128751855Y-71490077D01*
X128769162Y-71508149D01*
X128787652Y-71526904D01*
X128807325Y-71546342D01*
X128828181Y-71566464D01*
X128850220Y-71587268D01*
X128873442Y-71608756D01*
X128897847Y-71630927D01*
X128923435Y-71653781D01*
X128950207Y-71677318D01*
X128978161Y-71701538D01*
X129007298Y-71726441D01*
X129022311Y-71739149D01*
X129037619Y-71752027D01*
X129053223Y-71765077D01*
X129069122Y-71778297D01*
X129085318Y-71791688D01*
X129101809Y-71805249D01*
X129129031Y-71827447D01*
X129155008Y-71848732D01*
X129179742Y-71869105D01*
X129203231Y-71888567D01*
X129225476Y-71907116D01*
X129246477Y-71924753D01*
X129266234Y-71941478D01*
X129284747Y-71957290D01*
X129302016Y-71972191D01*
X129318040Y-71986180D01*
X129332821Y-71999256D01*
X129352659Y-72017161D01*
X129369698Y-72033013D01*
X129383937Y-72046814D01*
X129388062Y-72050958D01*
X129403472Y-72067093D01*
X129418195Y-72083259D01*
X129432231Y-72099455D01*
X129445581Y-72115682D01*
X129458243Y-72131939D01*
X129470219Y-72148227D01*
X129481507Y-72164546D01*
X129492109Y-72180895D01*
X128504391Y-72180895D01*
G37*
D12*
D13*
G36*
X150197072Y-72487500D02*
G01*
X150197072Y-70099781D01*
X149625580Y-70099781D01*
X148946195Y-71775202D01*
X148934646Y-71804015D01*
X148923495Y-71831908D01*
X148912741Y-71858883D01*
X148902384Y-71884938D01*
X148892424Y-71910074D01*
X148882861Y-71934290D01*
X148873695Y-71957588D01*
X148864926Y-71979966D01*
X148852516Y-72011810D01*
X148841000Y-72041585D01*
X148830377Y-72069292D01*
X148820648Y-72094930D01*
X148811811Y-72118501D01*
X148809064Y-72125898D01*
X148799445Y-72100619D01*
X148788859Y-72073211D01*
X148777306Y-72043675D01*
X148764786Y-72012010D01*
X148755903Y-71989717D01*
X148746590Y-71966478D01*
X148736848Y-71942292D01*
X148726675Y-71917161D01*
X148716074Y-71891083D01*
X148705042Y-71864060D01*
X148693581Y-71836090D01*
X148681690Y-71807174D01*
X148669370Y-71777312D01*
X148656620Y-71746503D01*
X147969577Y-70099781D01*
X147458646Y-70099781D01*
X147458646Y-72487500D01*
X147824790Y-72487500D01*
X147824790Y-70467123D01*
X148658709Y-72487500D01*
X149001186Y-72487500D01*
X149831624Y-70467123D01*
X149831624Y-72487500D01*
X150197072Y-72487500D01*
G37*
G36*
X146906645Y-70393654D02*
G01*
X146906645Y-70099781D01*
X146554422Y-70099781D01*
X146554422Y-70393654D01*
X146906645Y-70393654D01*
G37*
G36*
X146906645Y-72487500D02*
G01*
X146906645Y-70760996D01*
X146554422Y-70760996D01*
X146554422Y-72487500D01*
X146906645Y-72487500D01*
G37*
G36*
X146027480Y-72487500D02*
G01*
X146027480Y-70760996D01*
X145710062Y-70760996D01*
X145710062Y-71016413D01*
X145694993Y-70994575D01*
X145680065Y-70973688D01*
X145665279Y-70953751D01*
X145643364Y-70925629D01*
X145621767Y-70899645D01*
X145600489Y-70875801D01*
X145579529Y-70854096D01*
X145558887Y-70834529D01*
X145538563Y-70817101D01*
X145511959Y-70797192D01*
X145485921Y-70781085D01*
X145459850Y-70767767D01*
X145433148Y-70756225D01*
X145405816Y-70746458D01*
X145377852Y-70738467D01*
X145349258Y-70732252D01*
X145320033Y-70727813D01*
X145290177Y-70725149D01*
X145259691Y-70724262D01*
X145226229Y-70725059D01*
X145192670Y-70727450D01*
X145159013Y-70731435D01*
X145125258Y-70737014D01*
X145091405Y-70744188D01*
X145057454Y-70752956D01*
X145023406Y-70763317D01*
X144989259Y-70775273D01*
X144955014Y-70788823D01*
X144920672Y-70803967D01*
X144897723Y-70814949D01*
X145018843Y-71083567D01*
X145043113Y-71071874D01*
X145075454Y-71058071D01*
X145107773Y-71046314D01*
X145140071Y-71036601D01*
X145172347Y-71028933D01*
X145204601Y-71023310D01*
X145236833Y-71019732D01*
X145269044Y-71018198D01*
X145277093Y-71018135D01*
X145305622Y-71019040D01*
X145333433Y-71021758D01*
X145367187Y-71027702D01*
X145399820Y-71036477D01*
X145431331Y-71048082D01*
X145455732Y-71059405D01*
X145479416Y-71072539D01*
X145485225Y-71076106D01*
X145507369Y-71091298D01*
X145527860Y-71107889D01*
X145546698Y-71125880D01*
X145563883Y-71145269D01*
X145579415Y-71166058D01*
X145593293Y-71188245D01*
X145605518Y-71211832D01*
X145616090Y-71236817D01*
X145626664Y-71266460D01*
X145636198Y-71296627D01*
X145644692Y-71327319D01*
X145652145Y-71358535D01*
X145658559Y-71390276D01*
X145663933Y-71422542D01*
X145668266Y-71455332D01*
X145671560Y-71488647D01*
X145673813Y-71522487D01*
X145675027Y-71556851D01*
X145675258Y-71580052D01*
X145675258Y-72487500D01*
X146027480Y-72487500D01*
G37*
G36*
X143849941Y-70724492D02*
G01*
X143882690Y-70725185D01*
X143914939Y-70726340D01*
X143946687Y-70727956D01*
X143977935Y-70730035D01*
X144008683Y-70732575D01*
X144038930Y-70735577D01*
X144068677Y-70739041D01*
X144097924Y-70742967D01*
X144126670Y-70747355D01*
X144154916Y-70752204D01*
X144182662Y-70757516D01*
X144209908Y-70763289D01*
X144249838Y-70772815D01*
X144288642Y-70783381D01*
X144313677Y-70790965D01*
X144349832Y-70803074D01*
X144384311Y-70816061D01*
X144417114Y-70829925D01*
X144448240Y-70844668D01*
X144477690Y-70860288D01*
X144505464Y-70876785D01*
X144531561Y-70894161D01*
X144555982Y-70912414D01*
X144578727Y-70931545D01*
X144599795Y-70951554D01*
X144613043Y-70965455D01*
X144632017Y-70987315D01*
X144649914Y-71010386D01*
X144666734Y-71034668D01*
X144682478Y-71060160D01*
X144697145Y-71086863D01*
X144710735Y-71114777D01*
X144723248Y-71143901D01*
X144734685Y-71174237D01*
X144745045Y-71205783D01*
X144754328Y-71238539D01*
X144409762Y-71275273D01*
X144406135Y-71266355D01*
X144394535Y-71240629D01*
X144381859Y-71216446D01*
X144368105Y-71193808D01*
X144353275Y-71172713D01*
X144337369Y-71153161D01*
X144314485Y-71129494D01*
X144289686Y-71108571D01*
X144262974Y-71090392D01*
X144234347Y-71074958D01*
X144226824Y-71071462D01*
X144194189Y-71058588D01*
X144167044Y-71050098D01*
X144137610Y-71042606D01*
X144105888Y-71036114D01*
X144071878Y-71030620D01*
X144035580Y-71026125D01*
X143996994Y-71022629D01*
X143956120Y-71020132D01*
X143927599Y-71019022D01*
X143898061Y-71018356D01*
X143867506Y-71018135D01*
X143850972Y-71018217D01*
X143818675Y-71018881D01*
X143787405Y-71020208D01*
X143757163Y-71022199D01*
X143727949Y-71024854D01*
X143699763Y-71028172D01*
X143659410Y-71034394D01*
X143621371Y-71042109D01*
X143585644Y-71051317D01*
X143552229Y-71062019D01*
X143521127Y-71074213D01*
X143492338Y-71087901D01*
X143465861Y-71103082D01*
X143442531Y-71120283D01*
X143422312Y-71140319D01*
X143405203Y-71163188D01*
X143391205Y-71188891D01*
X143380318Y-71217428D01*
X143374194Y-71240691D01*
X143369820Y-71265547D01*
X143367195Y-71291998D01*
X143366320Y-71320043D01*
X143366550Y-71337488D01*
X143367103Y-71362015D01*
X143367712Y-71385476D01*
X143393824Y-71392731D01*
X143421692Y-71399861D01*
X143451317Y-71406865D01*
X143482698Y-71413744D01*
X143515836Y-71420497D01*
X143550730Y-71427125D01*
X143587381Y-71433627D01*
X143625788Y-71440003D01*
X143665952Y-71446254D01*
X143707873Y-71452379D01*
X143751550Y-71458379D01*
X143796984Y-71464253D01*
X143844174Y-71470002D01*
X143893120Y-71475625D01*
X143943824Y-71481123D01*
X143996284Y-71486495D01*
X144022061Y-71489156D01*
X144059177Y-71493173D01*
X144094433Y-71497221D01*
X144127829Y-71501298D01*
X144159365Y-71505407D01*
X144189041Y-71509545D01*
X144216858Y-71513713D01*
X144251053Y-71519319D01*
X144281942Y-71524978D01*
X144309525Y-71530690D01*
X144344406Y-71539354D01*
X144378395Y-71548986D01*
X144411492Y-71559586D01*
X144443697Y-71571155D01*
X144475010Y-71583693D01*
X144505431Y-71597199D01*
X144534961Y-71611674D01*
X144563599Y-71627117D01*
X144590953Y-71643691D01*
X144616980Y-71661556D01*
X144641681Y-71680712D01*
X144665054Y-71701160D01*
X144687101Y-71722899D01*
X144707820Y-71745929D01*
X144727213Y-71770251D01*
X144745279Y-71795865D01*
X144757719Y-71815756D01*
X144772402Y-71842889D01*
X144784910Y-71870723D01*
X144795242Y-71899255D01*
X144803400Y-71928487D01*
X144809382Y-71958419D01*
X144812441Y-71981327D01*
X144814276Y-72004628D01*
X144814888Y-72028323D01*
X144814170Y-72055140D01*
X144812016Y-72081352D01*
X144808427Y-72106959D01*
X144803402Y-72131961D01*
X144796942Y-72156357D01*
X144789045Y-72180147D01*
X144779713Y-72203332D01*
X144768946Y-72225912D01*
X144756742Y-72247887D01*
X144743103Y-72269256D01*
X144728029Y-72290020D01*
X144711518Y-72310178D01*
X144693572Y-72329732D01*
X144674190Y-72348679D01*
X144653373Y-72367022D01*
X144631120Y-72384759D01*
X144607444Y-72401648D01*
X144582534Y-72417448D01*
X144556390Y-72432158D01*
X144529012Y-72445779D01*
X144500398Y-72458310D01*
X144470551Y-72469751D01*
X144439469Y-72480103D01*
X144407152Y-72489365D01*
X144373601Y-72497537D01*
X144338815Y-72504620D01*
X144302795Y-72510613D01*
X144265541Y-72515516D01*
X144227052Y-72519330D01*
X144187328Y-72522054D01*
X144146370Y-72523689D01*
X144104178Y-72524234D01*
X144078267Y-72524007D01*
X144039799Y-72522818D01*
X144001809Y-72520610D01*
X143964295Y-72517384D01*
X143927259Y-72513138D01*
X143890700Y-72507873D01*
X143854618Y-72501589D01*
X143819013Y-72494286D01*
X143783886Y-72485964D01*
X143749235Y-72476623D01*
X143715062Y-72466263D01*
X143703737Y-72462558D01*
X143669588Y-72450469D01*
X143635182Y-72436918D01*
X143600520Y-72421903D01*
X143565600Y-72405426D01*
X143530424Y-72387485D01*
X143506830Y-72374712D01*
X143483122Y-72361289D01*
X143459300Y-72347215D01*
X143435364Y-72332492D01*
X143411313Y-72317118D01*
X143387149Y-72301094D01*
X143362870Y-72284419D01*
X143338476Y-72267095D01*
X143337481Y-72274955D01*
X143334028Y-72298161D01*
X143328340Y-72328223D01*
X143321411Y-72357280D01*
X143313243Y-72385333D01*
X143303835Y-72412381D01*
X143293187Y-72438425D01*
X143281299Y-72463464D01*
X143268171Y-72487500D01*
X142899938Y-72487500D01*
X142908120Y-72472679D01*
X142919751Y-72450298D01*
X142930610Y-72427735D01*
X142940699Y-72404990D01*
X142950016Y-72382064D01*
X142958563Y-72358956D01*
X142966339Y-72335666D01*
X142973344Y-72312195D01*
X142979578Y-72288542D01*
X142985042Y-72264708D01*
X142989734Y-72240692D01*
X142993715Y-72214253D01*
X142997304Y-72183365D01*
X142999480Y-72160300D01*
X143001481Y-72135259D01*
X143003308Y-72108239D01*
X143004961Y-72079243D01*
X143006441Y-72048268D01*
X143007746Y-72015317D01*
X143008877Y-71980387D01*
X143009834Y-71943481D01*
X143010617Y-71904596D01*
X143011226Y-71863735D01*
X143011661Y-71820895D01*
X143011922Y-71776079D01*
X143011988Y-71752929D01*
X143012009Y-71729284D01*
X143012009Y-71679349D01*
X143367712Y-71679349D01*
X143367712Y-71762575D01*
X143368214Y-71790125D01*
X143369719Y-71816384D01*
X143372227Y-71841352D01*
X143375739Y-71865028D01*
X143381982Y-71894588D01*
X143390009Y-71921851D01*
X143399820Y-71946819D01*
X143411414Y-71969491D01*
X143424792Y-71989867D01*
X143444728Y-72014377D01*
X143467297Y-72037973D01*
X143485951Y-72055069D01*
X143506085Y-72071651D01*
X143527700Y-72087718D01*
X143550795Y-72103271D01*
X143575371Y-72118309D01*
X143601428Y-72132833D01*
X143628965Y-72146842D01*
X143657983Y-72160336D01*
X143677995Y-72168816D01*
X143708667Y-72180509D01*
X143740122Y-72190972D01*
X143772359Y-72200204D01*
X143805380Y-72208204D01*
X143839184Y-72214974D01*
X143873771Y-72220513D01*
X143909141Y-72224822D01*
X143945295Y-72227899D01*
X143982231Y-72229745D01*
X144019951Y-72230361D01*
X144045236Y-72230112D01*
X144081725Y-72228805D01*
X144116490Y-72226379D01*
X144149529Y-72222832D01*
X144180843Y-72218166D01*
X144210432Y-72212380D01*
X144238295Y-72205474D01*
X144272763Y-72194523D01*
X144304163Y-72181582D01*
X144332496Y-72166650D01*
X144339048Y-72162637D01*
X144363178Y-72145970D01*
X144383979Y-72128315D01*
X144401452Y-72109675D01*
X144418613Y-72084987D01*
X144430574Y-72058757D01*
X144437334Y-72030987D01*
X144438998Y-72007660D01*
X144437285Y-71984798D01*
X144430956Y-71959094D01*
X144419964Y-71934434D01*
X144406831Y-71914127D01*
X144390272Y-71894588D01*
X144377285Y-71882203D01*
X144355440Y-71865071D01*
X144330756Y-71849675D01*
X144303233Y-71836014D01*
X144278129Y-71825955D01*
X144251053Y-71817102D01*
X144245274Y-71815457D01*
X144212665Y-71807382D01*
X144182124Y-71801105D01*
X144147624Y-71794988D01*
X144119151Y-71790507D01*
X144088450Y-71786116D01*
X144055523Y-71781817D01*
X144020369Y-71777608D01*
X143982988Y-71773489D01*
X143943381Y-71769462D01*
X143919596Y-71767115D01*
X143873148Y-71762331D01*
X143828196Y-71757425D01*
X143784739Y-71752398D01*
X143742778Y-71747251D01*
X143702312Y-71741982D01*
X143663341Y-71736592D01*
X143625867Y-71731081D01*
X143589887Y-71725449D01*
X143555404Y-71719695D01*
X143522415Y-71713821D01*
X143490923Y-71707826D01*
X143460925Y-71701710D01*
X143432424Y-71695472D01*
X143405418Y-71689114D01*
X143367712Y-71679349D01*
X143012009Y-71679349D01*
X143012009Y-71364239D01*
X143012026Y-71352937D01*
X143012281Y-71320294D01*
X143012842Y-71289549D01*
X143013709Y-71260700D01*
X143014881Y-71233748D01*
X143016360Y-71208693D01*
X143018144Y-71185534D01*
X143020999Y-71157607D01*
X143024398Y-71133052D01*
X143029412Y-71107100D01*
X143037982Y-71077621D01*
X143048032Y-71049452D01*
X143059561Y-71022592D01*
X143072569Y-70997041D01*
X143087057Y-70972800D01*
X143103023Y-70949868D01*
X143120469Y-70928245D01*
X143139394Y-70907932D01*
X143144353Y-70903008D01*
X143165916Y-70883838D01*
X143190241Y-70865512D01*
X143217329Y-70848028D01*
X143247179Y-70831387D01*
X143271380Y-70819460D01*
X143297134Y-70808007D01*
X143324443Y-70797028D01*
X143353306Y-70786523D01*
X143383722Y-70776493D01*
X143415797Y-70767159D01*
X143449634Y-70758742D01*
X143485232Y-70751244D01*
X143522593Y-70744664D01*
X143561715Y-70739003D01*
X143602600Y-70734259D01*
X143630835Y-70731607D01*
X143659853Y-70729362D01*
X143689655Y-70727526D01*
X143720239Y-70726098D01*
X143751607Y-70725078D01*
X143783758Y-70724466D01*
X143816692Y-70724262D01*
X143849941Y-70724492D01*
G37*
G36*
X141119335Y-71863019D02*
G01*
X140772681Y-71899754D01*
X140780507Y-71935918D01*
X140789713Y-71971087D01*
X140800302Y-72005261D01*
X140812271Y-72038439D01*
X140825622Y-72070622D01*
X140840354Y-72101809D01*
X140856468Y-72132001D01*
X140873962Y-72161197D01*
X140892838Y-72189398D01*
X140913096Y-72216603D01*
X140934734Y-72242813D01*
X140957754Y-72268027D01*
X140982156Y-72292246D01*
X141007938Y-72315470D01*
X141035102Y-72337698D01*
X141063647Y-72358930D01*
X141093299Y-72378947D01*
X141123783Y-72397673D01*
X141155099Y-72415107D01*
X141187247Y-72431250D01*
X141220227Y-72446102D01*
X141254040Y-72459662D01*
X141288684Y-72471931D01*
X141324160Y-72482908D01*
X141360468Y-72492593D01*
X141397609Y-72500988D01*
X141435581Y-72508091D01*
X141474385Y-72513902D01*
X141514022Y-72518422D01*
X141554490Y-72521651D01*
X141595791Y-72523588D01*
X141637923Y-72524234D01*
X141690693Y-72523332D01*
X141742152Y-72520628D01*
X141792301Y-72516122D01*
X141841139Y-72509813D01*
X141888666Y-72501701D01*
X141934883Y-72491786D01*
X141979789Y-72480069D01*
X142023384Y-72466550D01*
X142065669Y-72451227D01*
X142106644Y-72434102D01*
X142146307Y-72415175D01*
X142184660Y-72394445D01*
X142221703Y-72371912D01*
X142257435Y-72347576D01*
X142291856Y-72321438D01*
X142324966Y-72293497D01*
X142356323Y-72263801D01*
X142385657Y-72232540D01*
X142412968Y-72199714D01*
X142438255Y-72165323D01*
X142461520Y-72129366D01*
X142482762Y-72091845D01*
X142501980Y-72052759D01*
X142519176Y-72012108D01*
X142534349Y-71969892D01*
X142547498Y-71926111D01*
X142553314Y-71903634D01*
X142558625Y-71880765D01*
X142563430Y-71857506D01*
X142567728Y-71833855D01*
X142571522Y-71809812D01*
X142574809Y-71785379D01*
X142577591Y-71760554D01*
X142579867Y-71735338D01*
X142581637Y-71709731D01*
X142582901Y-71683732D01*
X142583660Y-71657342D01*
X142583913Y-71630561D01*
X142583478Y-71595966D01*
X142582172Y-71561918D01*
X142579997Y-71528417D01*
X142576952Y-71495463D01*
X142573036Y-71463056D01*
X142568251Y-71431196D01*
X142562595Y-71399883D01*
X142556069Y-71369118D01*
X142548673Y-71338899D01*
X142540407Y-71309227D01*
X142531271Y-71280103D01*
X142521264Y-71251525D01*
X142510388Y-71223495D01*
X142498641Y-71196012D01*
X142486025Y-71169075D01*
X142472538Y-71142686D01*
X142458078Y-71116909D01*
X142442715Y-71091953D01*
X142426449Y-71067817D01*
X142409281Y-71044501D01*
X142391209Y-71022007D01*
X142372235Y-71000332D01*
X142352359Y-70979479D01*
X142331579Y-70959446D01*
X142309897Y-70940234D01*
X142287312Y-70921842D01*
X142263824Y-70904271D01*
X142239434Y-70887520D01*
X142214141Y-70871590D01*
X142187945Y-70856481D01*
X142160846Y-70842192D01*
X142132845Y-70828724D01*
X142104150Y-70816074D01*
X142075145Y-70804241D01*
X142045831Y-70793223D01*
X142016206Y-70783022D01*
X141986271Y-70773636D01*
X141956027Y-70765067D01*
X141925472Y-70757314D01*
X141894607Y-70750377D01*
X141863433Y-70744256D01*
X141831948Y-70738952D01*
X141800154Y-70734463D01*
X141768049Y-70730790D01*
X141735635Y-70727934D01*
X141702910Y-70725894D01*
X141669876Y-70724670D01*
X141636531Y-70724262D01*
X141594641Y-70724822D01*
X141553718Y-70726504D01*
X141513763Y-70729306D01*
X141474777Y-70733230D01*
X141436758Y-70738274D01*
X141399708Y-70744440D01*
X141363625Y-70751727D01*
X141328510Y-70760135D01*
X141294364Y-70769664D01*
X141261185Y-70780313D01*
X141228975Y-70792084D01*
X141197732Y-70804976D01*
X141167458Y-70818989D01*
X141138151Y-70834123D01*
X141109812Y-70850378D01*
X141082442Y-70867754D01*
X141056075Y-70886162D01*
X141030920Y-70905511D01*
X141006978Y-70925801D01*
X140984249Y-70947034D01*
X140962733Y-70969208D01*
X140942430Y-70992324D01*
X140923339Y-71016381D01*
X140905461Y-71041380D01*
X140888795Y-71067321D01*
X140873342Y-71094204D01*
X140859102Y-71122028D01*
X140846075Y-71150794D01*
X140834261Y-71180501D01*
X140823659Y-71211150D01*
X140814270Y-71242741D01*
X140806093Y-71275273D01*
X141148571Y-71312008D01*
X141158374Y-71285205D01*
X141169511Y-71259684D01*
X141181981Y-71235445D01*
X141195785Y-71212486D01*
X141210923Y-71190809D01*
X141227395Y-71170414D01*
X141245200Y-71151300D01*
X141264339Y-71133467D01*
X141284812Y-71116915D01*
X141306619Y-71101645D01*
X141321898Y-71092177D01*
X141345713Y-71078945D01*
X141370434Y-71067014D01*
X141396060Y-71056385D01*
X141422592Y-71047057D01*
X141450029Y-71039031D01*
X141478372Y-71032307D01*
X141507620Y-71026884D01*
X141537773Y-71022762D01*
X141568832Y-71019942D01*
X141600797Y-71018424D01*
X141622609Y-71018135D01*
X141655543Y-71018702D01*
X141687694Y-71020404D01*
X141719062Y-71023240D01*
X141749646Y-71027210D01*
X141779448Y-71032316D01*
X141808466Y-71038555D01*
X141836701Y-71045930D01*
X141864153Y-71054438D01*
X141890822Y-71064081D01*
X141916708Y-71074859D01*
X141941811Y-71086771D01*
X141966131Y-71099818D01*
X141989667Y-71113999D01*
X142012421Y-71129314D01*
X142034391Y-71145765D01*
X142055579Y-71163349D01*
X142075725Y-71182160D01*
X142094571Y-71202289D01*
X142112117Y-71223737D01*
X142128364Y-71246503D01*
X142143311Y-71270587D01*
X142156958Y-71295990D01*
X142169305Y-71322711D01*
X142180353Y-71350751D01*
X142190101Y-71380108D01*
X142198549Y-71410784D01*
X142205698Y-71442779D01*
X142211547Y-71476091D01*
X142216096Y-71510722D01*
X142219345Y-71546672D01*
X142221295Y-71583940D01*
X142221945Y-71622526D01*
X142221319Y-71661735D01*
X142219443Y-71699581D01*
X142216316Y-71736064D01*
X142211938Y-71771184D01*
X142206310Y-71804941D01*
X142199430Y-71837334D01*
X142191300Y-71868364D01*
X142181919Y-71898032D01*
X142171288Y-71926336D01*
X142159405Y-71953276D01*
X142146272Y-71978854D01*
X142131888Y-72003068D01*
X142116253Y-72025919D01*
X142099367Y-72047407D01*
X142081231Y-72067532D01*
X142061844Y-72086294D01*
X142041360Y-72103740D01*
X142020111Y-72120060D01*
X141998094Y-72135254D01*
X141975311Y-72149323D01*
X141951760Y-72162267D01*
X141927443Y-72174085D01*
X141902360Y-72184777D01*
X141876509Y-72194344D01*
X141849892Y-72202785D01*
X141822507Y-72210101D01*
X141794357Y-72216292D01*
X141765439Y-72221356D01*
X141735754Y-72225296D01*
X141705303Y-72228110D01*
X141674085Y-72229798D01*
X141642100Y-72230361D01*
X141603805Y-72229569D01*
X141566710Y-72227193D01*
X141530814Y-72223233D01*
X141496116Y-72217688D01*
X141462618Y-72210560D01*
X141430319Y-72201848D01*
X141399220Y-72191552D01*
X141369319Y-72179672D01*
X141340617Y-72166208D01*
X141313115Y-72151159D01*
X141295446Y-72140247D01*
X141270242Y-72122498D01*
X141246837Y-72103045D01*
X141225230Y-72081886D01*
X141205422Y-72059021D01*
X141187412Y-72034452D01*
X141171202Y-72008178D01*
X141156790Y-71980199D01*
X141144177Y-71950514D01*
X141133362Y-71919124D01*
X141124346Y-71886030D01*
X141119335Y-71863019D01*
G37*
G36*
X140490764Y-72487500D02*
G01*
X140490764Y-70099781D01*
X140137845Y-70099781D01*
X140137845Y-72487500D01*
X140490764Y-72487500D01*
G37*
G36*
X138796804Y-70725199D02*
G01*
X138848780Y-70728010D01*
X138899500Y-70732696D01*
X138948963Y-70739257D01*
X138997170Y-70747691D01*
X139044121Y-70758000D01*
X139089816Y-70770184D01*
X139134254Y-70784241D01*
X139177436Y-70800174D01*
X139219362Y-70817980D01*
X139260032Y-70837661D01*
X139299445Y-70859216D01*
X139337603Y-70882646D01*
X139374504Y-70907950D01*
X139410149Y-70935129D01*
X139444537Y-70964181D01*
X139461154Y-70979366D01*
X139492804Y-71010876D01*
X139522345Y-71043907D01*
X139549775Y-71078457D01*
X139575095Y-71114527D01*
X139598306Y-71152118D01*
X139619406Y-71191229D01*
X139638396Y-71231860D01*
X139655276Y-71274011D01*
X139670047Y-71317682D01*
X139676640Y-71340087D01*
X139682707Y-71362873D01*
X139688246Y-71386039D01*
X139693257Y-71409584D01*
X139697741Y-71433510D01*
X139701697Y-71457816D01*
X139705126Y-71482501D01*
X139708027Y-71507567D01*
X139710401Y-71533013D01*
X139712247Y-71558839D01*
X139713566Y-71585045D01*
X139714357Y-71611631D01*
X139714621Y-71638597D01*
X139714360Y-71664673D01*
X139713577Y-71690384D01*
X139712272Y-71715730D01*
X139710444Y-71740710D01*
X139708095Y-71765324D01*
X139705224Y-71789574D01*
X139701830Y-71813457D01*
X139697915Y-71836975D01*
X139693477Y-71860128D01*
X139688517Y-71882916D01*
X139677032Y-71927394D01*
X139663458Y-71970410D01*
X139647796Y-72011965D01*
X139630046Y-72052058D01*
X139610207Y-72090688D01*
X139588280Y-72127858D01*
X139564265Y-72163565D01*
X139538162Y-72197810D01*
X139509970Y-72230594D01*
X139479690Y-72261916D01*
X139447322Y-72291775D01*
X139413172Y-72319925D01*
X139377549Y-72346258D01*
X139340452Y-72370775D01*
X139301882Y-72393476D01*
X139261837Y-72414361D01*
X139220319Y-72433430D01*
X139177328Y-72450682D01*
X139132862Y-72466119D01*
X139086923Y-72479740D01*
X139039509Y-72491544D01*
X138990623Y-72501533D01*
X138940262Y-72509705D01*
X138888428Y-72516061D01*
X138835119Y-72520601D01*
X138780338Y-72523326D01*
X138752394Y-72524007D01*
X138724082Y-72524234D01*
X138679257Y-72523707D01*
X138635450Y-72522126D01*
X138592659Y-72519492D01*
X138550885Y-72515803D01*
X138510129Y-72511061D01*
X138470389Y-72505266D01*
X138431666Y-72498416D01*
X138393960Y-72490513D01*
X138357271Y-72481556D01*
X138321599Y-72471545D01*
X138286944Y-72460480D01*
X138253306Y-72448362D01*
X138220685Y-72435190D01*
X138189081Y-72420964D01*
X138158493Y-72405684D01*
X138128923Y-72389351D01*
X138100348Y-72372062D01*
X138072920Y-72353917D01*
X138046640Y-72334915D01*
X138021507Y-72315057D01*
X137997522Y-72294343D01*
X137974684Y-72272772D01*
X137952994Y-72250344D01*
X137932451Y-72227060D01*
X137913056Y-72202920D01*
X137894808Y-72177923D01*
X137877707Y-72152070D01*
X137861754Y-72125360D01*
X137846949Y-72097794D01*
X137833291Y-72069371D01*
X137820780Y-72040092D01*
X137809417Y-72009956D01*
X138174169Y-71973222D01*
X138184398Y-71989726D01*
X138200578Y-72013414D01*
X138217762Y-72035820D01*
X138235949Y-72056946D01*
X138255139Y-72076790D01*
X138275332Y-72095353D01*
X138296529Y-72112634D01*
X138318729Y-72128634D01*
X138341933Y-72143353D01*
X138366140Y-72156790D01*
X138391350Y-72168946D01*
X138408711Y-72176383D01*
X138435580Y-72186639D01*
X138463439Y-72195815D01*
X138492289Y-72203911D01*
X138522131Y-72210929D01*
X138552964Y-72216866D01*
X138584787Y-72221724D01*
X138617602Y-72225503D01*
X138651408Y-72228202D01*
X138686205Y-72229821D01*
X138721994Y-72230361D01*
X138754201Y-72229843D01*
X138785740Y-72228289D01*
X138816610Y-72225699D01*
X138846812Y-72222074D01*
X138876344Y-72217413D01*
X138905207Y-72211716D01*
X138933402Y-72204983D01*
X138960927Y-72197214D01*
X138987784Y-72188409D01*
X139013972Y-72178569D01*
X139039490Y-72167692D01*
X139064340Y-72155780D01*
X139088521Y-72142832D01*
X139112034Y-72128849D01*
X139134877Y-72113829D01*
X139157051Y-72097773D01*
X139178200Y-72080745D01*
X139198142Y-72062806D01*
X139216877Y-72043957D01*
X139234404Y-72024198D01*
X139250724Y-72003528D01*
X139265837Y-71981948D01*
X139279743Y-71959458D01*
X139292441Y-71936057D01*
X139303932Y-71911746D01*
X139314216Y-71886525D01*
X139323292Y-71860394D01*
X139331161Y-71833352D01*
X139337823Y-71805400D01*
X139343278Y-71776538D01*
X139347525Y-71746766D01*
X139350565Y-71716083D01*
X137799672Y-71716083D01*
X137799503Y-71709585D01*
X137798937Y-71685658D01*
X137798475Y-71660390D01*
X137798279Y-71636875D01*
X137798538Y-71609945D01*
X137799313Y-71583395D01*
X137800604Y-71557225D01*
X137802412Y-71531435D01*
X137804737Y-71506025D01*
X137807579Y-71480995D01*
X137810937Y-71456345D01*
X137814812Y-71432075D01*
X137816625Y-71422210D01*
X138169993Y-71422210D01*
X139331074Y-71422210D01*
X139328320Y-71399471D01*
X139322016Y-71366455D01*
X139313106Y-71334751D01*
X139301590Y-71304359D01*
X139287468Y-71275278D01*
X139270739Y-71247509D01*
X139251404Y-71221051D01*
X139229463Y-71195905D01*
X139204916Y-71172071D01*
X139177762Y-71149548D01*
X139148002Y-71128337D01*
X139137573Y-71121557D01*
X139105388Y-71102508D01*
X139071857Y-71085397D01*
X139036981Y-71070222D01*
X139000758Y-71056985D01*
X138963189Y-71045685D01*
X138924275Y-71036322D01*
X138884014Y-71028896D01*
X138856426Y-71025022D01*
X138828240Y-71022009D01*
X138799456Y-71019856D01*
X138770073Y-71018565D01*
X138740092Y-71018135D01*
X138706897Y-71018673D01*
X138674485Y-71020287D01*
X138642857Y-71022977D01*
X138612011Y-71026744D01*
X138581949Y-71031587D01*
X138552669Y-71037506D01*
X138524173Y-71044501D01*
X138496460Y-71052573D01*
X138469530Y-71061720D01*
X138443383Y-71071944D01*
X138418019Y-71083244D01*
X138393438Y-71095621D01*
X138369640Y-71109073D01*
X138346626Y-71123602D01*
X138324394Y-71139206D01*
X138302946Y-71155887D01*
X138289620Y-71167353D01*
X138270884Y-71185847D01*
X138253654Y-71205895D01*
X138237929Y-71227496D01*
X138223709Y-71250651D01*
X138210993Y-71275360D01*
X138199783Y-71301622D01*
X138190078Y-71329439D01*
X138181878Y-71358809D01*
X138175183Y-71389732D01*
X138169993Y-71422210D01*
X137816625Y-71422210D01*
X137819203Y-71408185D01*
X137824111Y-71384675D01*
X137829535Y-71361546D01*
X137835477Y-71338796D01*
X137848909Y-71294436D01*
X137864408Y-71251597D01*
X137881974Y-71210278D01*
X137901606Y-71170479D01*
X137923304Y-71132200D01*
X137947069Y-71095441D01*
X137972901Y-71060203D01*
X138000799Y-71026484D01*
X138030763Y-70994286D01*
X138062794Y-70963607D01*
X138096370Y-70934624D01*
X138131142Y-70907511D01*
X138167110Y-70882267D01*
X138204275Y-70858894D01*
X138242636Y-70837390D01*
X138282194Y-70817756D01*
X138322948Y-70799992D01*
X138364898Y-70784098D01*
X138408045Y-70770074D01*
X138452388Y-70757920D01*
X138497928Y-70747635D01*
X138544664Y-70739221D01*
X138592597Y-70732676D01*
X138641725Y-70728001D01*
X138692051Y-70725196D01*
X138743572Y-70724262D01*
X138796804Y-70725199D01*
G37*
G36*
X150314712Y-75627349D02*
G01*
X149956920Y-75627349D01*
X149951504Y-75660366D01*
X149944913Y-75692264D01*
X149937147Y-75723041D01*
X149928206Y-75752699D01*
X149918091Y-75781236D01*
X149906802Y-75808654D01*
X149894337Y-75834952D01*
X149880698Y-75860130D01*
X149865884Y-75884188D01*
X149849896Y-75907126D01*
X149838585Y-75921796D01*
X149820196Y-75942936D01*
X149800009Y-75963310D01*
X149778023Y-75982917D01*
X149754238Y-76001757D01*
X149728654Y-76019830D01*
X149701272Y-76037137D01*
X149672092Y-76053677D01*
X149641112Y-76069450D01*
X149608334Y-76084456D01*
X149573757Y-76098695D01*
X149549706Y-76107762D01*
X149512597Y-76120379D01*
X149474618Y-76131755D01*
X149435771Y-76141889D01*
X149396055Y-76150783D01*
X149355470Y-76158436D01*
X149327931Y-76162848D01*
X149300006Y-76166709D01*
X149271694Y-76170018D01*
X149242997Y-76172776D01*
X149213913Y-76174982D01*
X149184444Y-76176637D01*
X149154588Y-76177740D01*
X149124346Y-76178292D01*
X149109080Y-76178361D01*
X149068805Y-76177891D01*
X149029424Y-76176484D01*
X148990935Y-76174138D01*
X148953340Y-76170854D01*
X148916639Y-76166632D01*
X148880830Y-76161471D01*
X148845914Y-76155372D01*
X148811892Y-76148335D01*
X148778763Y-76140359D01*
X148746528Y-76131445D01*
X148725533Y-76124981D01*
X148694968Y-76114517D01*
X148665920Y-76103357D01*
X148638389Y-76091500D01*
X148612375Y-76078947D01*
X148587878Y-76065698D01*
X148564899Y-76051753D01*
X148543437Y-76037112D01*
X148517182Y-76016507D01*
X148493623Y-75994665D01*
X148477725Y-75977471D01*
X148458636Y-75953732D01*
X148442093Y-75929580D01*
X148428095Y-75905016D01*
X148416642Y-75880039D01*
X148407735Y-75854650D01*
X148401372Y-75828848D01*
X148397554Y-75802634D01*
X148396282Y-75776007D01*
X148397511Y-75749318D01*
X148401198Y-75723489D01*
X148407343Y-75698521D01*
X148415946Y-75674414D01*
X148427008Y-75651169D01*
X148440527Y-75628784D01*
X148456505Y-75607260D01*
X148474940Y-75586597D01*
X148496030Y-75566615D01*
X148520317Y-75547423D01*
X148547801Y-75529020D01*
X148570513Y-75515736D01*
X148595024Y-75502896D01*
X148621334Y-75490499D01*
X148649442Y-75478547D01*
X148679349Y-75467038D01*
X148711054Y-75455974D01*
X148733190Y-75448844D01*
X148766451Y-75439024D01*
X148797134Y-75430823D01*
X148832737Y-75421905D01*
X148873259Y-75412272D01*
X148903006Y-75405451D01*
X148934939Y-75398313D01*
X148969058Y-75390855D01*
X149005364Y-75383080D01*
X149043855Y-75374986D01*
X149084533Y-75366574D01*
X149127397Y-75357843D01*
X149172448Y-75348794D01*
X149219684Y-75339427D01*
X149244122Y-75334624D01*
X149292620Y-75324898D01*
X149339269Y-75315234D01*
X149384069Y-75305634D01*
X149427020Y-75296096D01*
X149468122Y-75286621D01*
X149507375Y-75277209D01*
X149544779Y-75267859D01*
X149580334Y-75258573D01*
X149614041Y-75249349D01*
X149645898Y-75240188D01*
X149675906Y-75231089D01*
X149704065Y-75222054D01*
X149730375Y-75213081D01*
X149766373Y-75199739D01*
X149798211Y-75186539D01*
X149823472Y-75175181D01*
X149847917Y-75163491D01*
X149883054Y-75145333D01*
X149916357Y-75126429D01*
X149947824Y-75106779D01*
X149977455Y-75086381D01*
X150005251Y-75065238D01*
X150031212Y-75043347D01*
X150055337Y-75020710D01*
X150077627Y-74997326D01*
X150098082Y-74973196D01*
X150104492Y-74964987D01*
X150122530Y-74939844D01*
X150138793Y-74914136D01*
X150153283Y-74887864D01*
X150165998Y-74861026D01*
X150176939Y-74833624D01*
X150186106Y-74805656D01*
X150193498Y-74777123D01*
X150199117Y-74748026D01*
X150202961Y-74718363D01*
X150205031Y-74688135D01*
X150205425Y-74667670D01*
X150204342Y-74634084D01*
X150201094Y-74600912D01*
X150195679Y-74568154D01*
X150188099Y-74535809D01*
X150178353Y-74503878D01*
X150166441Y-74472361D01*
X150152364Y-74441257D01*
X150136121Y-74410567D01*
X150117711Y-74380290D01*
X150097137Y-74350428D01*
X150082217Y-74330749D01*
X150066373Y-74311389D01*
X150049642Y-74292625D01*
X150032025Y-74274457D01*
X150013521Y-74256886D01*
X149994131Y-74239911D01*
X149973855Y-74223533D01*
X149952692Y-74207751D01*
X149930643Y-74192566D01*
X149907707Y-74177976D01*
X149883885Y-74163984D01*
X149859176Y-74150587D01*
X149833581Y-74137787D01*
X149807100Y-74125584D01*
X149779732Y-74113976D01*
X149751478Y-74102966D01*
X149722337Y-74092551D01*
X149692462Y-74082682D01*
X149662180Y-74073449D01*
X149631489Y-74064853D01*
X149600391Y-74056893D01*
X149568884Y-74049571D01*
X149536970Y-74042885D01*
X149504648Y-74036836D01*
X149471918Y-74031423D01*
X149438780Y-74026648D01*
X149405235Y-74022509D01*
X149371281Y-74019007D01*
X149336920Y-74016141D01*
X149302150Y-74013913D01*
X149266973Y-74012321D01*
X149231388Y-74011366D01*
X149195396Y-74011047D01*
X149155754Y-74011375D01*
X149116704Y-74012357D01*
X149078248Y-74013993D01*
X149040385Y-74016285D01*
X149003114Y-74019231D01*
X148966436Y-74022832D01*
X148930350Y-74027087D01*
X148894858Y-74031997D01*
X148859958Y-74037562D01*
X148825651Y-74043782D01*
X148791937Y-74050656D01*
X148758815Y-74058185D01*
X148726287Y-74066368D01*
X148694351Y-74075206D01*
X148663007Y-74084699D01*
X148632257Y-74094847D01*
X148602243Y-74105629D01*
X148573111Y-74117026D01*
X148544859Y-74129036D01*
X148517489Y-74141662D01*
X148490999Y-74154901D01*
X148465391Y-74168755D01*
X148440663Y-74183223D01*
X148416816Y-74198305D01*
X148393851Y-74214002D01*
X148371766Y-74230313D01*
X148350563Y-74247238D01*
X148330240Y-74264778D01*
X148310798Y-74282932D01*
X148292238Y-74301701D01*
X148274558Y-74321083D01*
X148257759Y-74341080D01*
X148241790Y-74361553D01*
X148226772Y-74382361D01*
X148212707Y-74403506D01*
X148199592Y-74424988D01*
X148187430Y-74446805D01*
X148176219Y-74468959D01*
X148165960Y-74491450D01*
X148156652Y-74514276D01*
X148148296Y-74537439D01*
X148140892Y-74560938D01*
X148134440Y-74584774D01*
X148128939Y-74608945D01*
X148124390Y-74633453D01*
X148120792Y-74658298D01*
X148118147Y-74683479D01*
X148116453Y-74708996D01*
X148480509Y-74708996D01*
X148484713Y-74684409D01*
X148490015Y-74660585D01*
X148496416Y-74637523D01*
X148503915Y-74615223D01*
X148517224Y-74583203D01*
X148533004Y-74552898D01*
X148551256Y-74524308D01*
X148571980Y-74497434D01*
X148595175Y-74472274D01*
X148620842Y-74448830D01*
X148648981Y-74427101D01*
X148679591Y-74407087D01*
X148712726Y-74388829D01*
X148748700Y-74372366D01*
X148774260Y-74362389D01*
X148801081Y-74353210D01*
X148829164Y-74344829D01*
X148858509Y-74337247D01*
X148889115Y-74330462D01*
X148920983Y-74324476D01*
X148954113Y-74319287D01*
X148988504Y-74314898D01*
X149024157Y-74311306D01*
X149061071Y-74308512D01*
X149099248Y-74306517D01*
X149138686Y-74305319D01*
X149179385Y-74304920D01*
X149221727Y-74305324D01*
X149262612Y-74306535D01*
X149302039Y-74308552D01*
X149340009Y-74311377D01*
X149376521Y-74315010D01*
X149411576Y-74319449D01*
X149445173Y-74324695D01*
X149477313Y-74330749D01*
X149507995Y-74337610D01*
X149537220Y-74345278D01*
X149564988Y-74353753D01*
X149591298Y-74363035D01*
X149628030Y-74378472D01*
X149661484Y-74395724D01*
X149681964Y-74408235D01*
X149710078Y-74427877D01*
X149735427Y-74448276D01*
X149758011Y-74469432D01*
X149777829Y-74491344D01*
X149794882Y-74514013D01*
X149809169Y-74537439D01*
X149820692Y-74561621D01*
X149829448Y-74586561D01*
X149835440Y-74612256D01*
X149838666Y-74638709D01*
X149839281Y-74656764D01*
X149838302Y-74680052D01*
X149833951Y-74709894D01*
X149826120Y-74738355D01*
X149814809Y-74765435D01*
X149800017Y-74791133D01*
X149781744Y-74815451D01*
X149759991Y-74838387D01*
X149734758Y-74859943D01*
X149727906Y-74865116D01*
X149704182Y-74880433D01*
X149674255Y-74895821D01*
X149638124Y-74911279D01*
X149610591Y-74921624D01*
X149580300Y-74932001D01*
X149547252Y-74942408D01*
X149511446Y-74952847D01*
X149472884Y-74963318D01*
X149431564Y-74973820D01*
X149387488Y-74984353D01*
X149340654Y-74994918D01*
X149291063Y-75005514D01*
X149238714Y-75016141D01*
X149211506Y-75021467D01*
X149183609Y-75026800D01*
X149155022Y-75032141D01*
X149126374Y-75037466D01*
X149098293Y-75042751D01*
X149070779Y-75047995D01*
X149017452Y-75058362D01*
X148966393Y-75068568D01*
X148917601Y-75078613D01*
X148871077Y-75088496D01*
X148826821Y-75098217D01*
X148784832Y-75107777D01*
X148745112Y-75117176D01*
X148707659Y-75126414D01*
X148672473Y-75135490D01*
X148639556Y-75144404D01*
X148608906Y-75153157D01*
X148580524Y-75161749D01*
X148554410Y-75170179D01*
X148519490Y-75182521D01*
X148488680Y-75194631D01*
X148458897Y-75207139D01*
X148430143Y-75220047D01*
X148402416Y-75233354D01*
X148375717Y-75247060D01*
X148350046Y-75261164D01*
X148325403Y-75275668D01*
X148301787Y-75290571D01*
X148279200Y-75305874D01*
X148257640Y-75321575D01*
X148237108Y-75337675D01*
X148217604Y-75354175D01*
X148190275Y-75379672D01*
X148165258Y-75406067D01*
X148149865Y-75424163D01*
X148128468Y-75452000D01*
X148109176Y-75480623D01*
X148091989Y-75510033D01*
X148076906Y-75540231D01*
X148063928Y-75571215D01*
X148053054Y-75602986D01*
X148044285Y-75635545D01*
X148037620Y-75668890D01*
X148033060Y-75703022D01*
X148031190Y-75726214D01*
X148030254Y-75749756D01*
X148030137Y-75761658D01*
X148030651Y-75785249D01*
X148032193Y-75808670D01*
X148034763Y-75831920D01*
X148038360Y-75855000D01*
X148042985Y-75877909D01*
X148048638Y-75900648D01*
X148055319Y-75923217D01*
X148063028Y-75945616D01*
X148071764Y-75967843D01*
X148081528Y-75989901D01*
X148092321Y-76011788D01*
X148104141Y-76033505D01*
X148116988Y-76055051D01*
X148130864Y-76076427D01*
X148145767Y-76097633D01*
X148161699Y-76118668D01*
X148178506Y-76139326D01*
X148196210Y-76159402D01*
X148214811Y-76178894D01*
X148234310Y-76197804D01*
X148254706Y-76216131D01*
X148275999Y-76233874D01*
X148298190Y-76251035D01*
X148321278Y-76267613D01*
X148345263Y-76283608D01*
X148370146Y-76299020D01*
X148395926Y-76313849D01*
X148422603Y-76328095D01*
X148450177Y-76341758D01*
X148478649Y-76354839D01*
X148508018Y-76367336D01*
X148538285Y-76379250D01*
X148569239Y-76390510D01*
X148600672Y-76401043D01*
X148632583Y-76410850D01*
X148664973Y-76419931D01*
X148697842Y-76428285D01*
X148731189Y-76435912D01*
X148765015Y-76442813D01*
X148799319Y-76448988D01*
X148834102Y-76454436D01*
X148869363Y-76459158D01*
X148905103Y-76463153D01*
X148941322Y-76466422D01*
X148978019Y-76468965D01*
X149015195Y-76470781D01*
X149052849Y-76471870D01*
X149090982Y-76472234D01*
X149139213Y-76471848D01*
X149186455Y-76470691D01*
X149232707Y-76468763D01*
X149277969Y-76466063D01*
X149322242Y-76462593D01*
X149365525Y-76458351D01*
X149407818Y-76453337D01*
X149449121Y-76447553D01*
X149489435Y-76440997D01*
X149528758Y-76433670D01*
X149567092Y-76425572D01*
X149604437Y-76416702D01*
X149640791Y-76407061D01*
X149676156Y-76396649D01*
X149710531Y-76385465D01*
X149743916Y-76373511D01*
X149776366Y-76360780D01*
X149807935Y-76347269D01*
X149838623Y-76332978D01*
X149868430Y-76317907D01*
X149897355Y-76302056D01*
X149925400Y-76285424D01*
X149952564Y-76268012D01*
X149978847Y-76249820D01*
X150004249Y-76230848D01*
X150028770Y-76211095D01*
X150052410Y-76190562D01*
X150075169Y-76169249D01*
X150097047Y-76147155D01*
X150118044Y-76124282D01*
X150138160Y-76100628D01*
X150157395Y-76076194D01*
X150175548Y-76051168D01*
X150192591Y-76025738D01*
X150208525Y-75999905D01*
X150223350Y-75973668D01*
X150237065Y-75947028D01*
X150249671Y-75919984D01*
X150261167Y-75892537D01*
X150271554Y-75864686D01*
X150280832Y-75836431D01*
X150289000Y-75807773D01*
X150296059Y-75778711D01*
X150302008Y-75749246D01*
X150306848Y-75719377D01*
X150310579Y-75689104D01*
X150313200Y-75658428D01*
X150314712Y-75627349D01*
G37*
G36*
X147587423Y-77096714D02*
G01*
X147626404Y-76813746D01*
X147597973Y-76819800D01*
X147570455Y-76825046D01*
X147537344Y-76830469D01*
X147505659Y-76834631D01*
X147475402Y-76837532D01*
X147446573Y-76839171D01*
X147424537Y-76839575D01*
X147396030Y-76839064D01*
X147362446Y-76836987D01*
X147331138Y-76833313D01*
X147302109Y-76828041D01*
X147275356Y-76821172D01*
X147246259Y-76810820D01*
X147237288Y-76806859D01*
X147211593Y-76793897D01*
X147187757Y-76779120D01*
X147165781Y-76762526D01*
X147145665Y-76744116D01*
X147127409Y-76723891D01*
X147121737Y-76716745D01*
X147107764Y-76695847D01*
X147093913Y-76671495D01*
X147081389Y-76647473D01*
X147067581Y-76619416D01*
X147056383Y-76595725D01*
X147044463Y-76569763D01*
X147031822Y-76541532D01*
X147018458Y-76511030D01*
X147013843Y-76500358D01*
X147003972Y-76476705D01*
X146993721Y-76453612D01*
X146983856Y-76432070D01*
X146982519Y-76429186D01*
X147771191Y-74708996D01*
X147391821Y-74708996D01*
X146958852Y-75682450D01*
X146948391Y-75705698D01*
X146938067Y-75729094D01*
X146927878Y-75752638D01*
X146917826Y-75776330D01*
X146907909Y-75800170D01*
X146898128Y-75824158D01*
X146888484Y-75848294D01*
X146878975Y-75872578D01*
X146869602Y-75897010D01*
X146860365Y-75921589D01*
X146851265Y-75946317D01*
X146842300Y-75971193D01*
X146833471Y-75996217D01*
X146824778Y-76021389D01*
X146816221Y-76046708D01*
X146807800Y-76072176D01*
X146796237Y-76041575D01*
X146784258Y-76010470D01*
X146771862Y-75978860D01*
X146759051Y-75946746D01*
X146745824Y-75914127D01*
X146736775Y-75892101D01*
X146727541Y-75869850D01*
X146718122Y-75847376D01*
X146708518Y-75824677D01*
X146698729Y-75801754D01*
X146688756Y-75778607D01*
X146678597Y-75755235D01*
X146668253Y-75731640D01*
X146663012Y-75719758D01*
X146218906Y-74708996D01*
X145866683Y-74708996D01*
X146657444Y-76468790D01*
X146673144Y-76503331D01*
X146688398Y-76536500D01*
X146703206Y-76568297D01*
X146717569Y-76598722D01*
X146731485Y-76627775D01*
X146744956Y-76655456D01*
X146757980Y-76681764D01*
X146770559Y-76706701D01*
X146782691Y-76730265D01*
X146794378Y-76752457D01*
X146811072Y-76783172D01*
X146826763Y-76810800D01*
X146841450Y-76835341D01*
X146855134Y-76856794D01*
X146872998Y-76882920D01*
X146891352Y-76907705D01*
X146910196Y-76931147D01*
X146929529Y-76953248D01*
X146949351Y-76974007D01*
X146969663Y-76993424D01*
X146990464Y-77011499D01*
X147011755Y-77028232D01*
X147033535Y-77043623D01*
X147055804Y-77057673D01*
X147070922Y-77066293D01*
X147101942Y-77082033D01*
X147134441Y-77095673D01*
X147168419Y-77107216D01*
X147194873Y-77114495D01*
X147222159Y-77120594D01*
X147250278Y-77125513D01*
X147279228Y-77129251D01*
X147309010Y-77131808D01*
X147339625Y-77133186D01*
X147360497Y-77133448D01*
X147392834Y-77132551D01*
X147426326Y-77129861D01*
X147453953Y-77126417D01*
X147482318Y-77121825D01*
X147511424Y-77116085D01*
X147541269Y-77109198D01*
X147571853Y-77101162D01*
X147587423Y-77096714D01*
G37*
G36*
X145719112Y-75921222D02*
G01*
X145370369Y-75884488D01*
X145363964Y-75910592D01*
X145355711Y-75935526D01*
X145345610Y-75959290D01*
X145333661Y-75981883D01*
X145319865Y-76003306D01*
X145304222Y-76023559D01*
X145286730Y-76042641D01*
X145267391Y-76060553D01*
X145246205Y-76077295D01*
X145223170Y-76092866D01*
X145206788Y-76102596D01*
X145180662Y-76116136D01*
X145152664Y-76128344D01*
X145122794Y-76139221D01*
X145091052Y-76148765D01*
X145057437Y-76156978D01*
X145021951Y-76163859D01*
X144984592Y-76169408D01*
X144945362Y-76173625D01*
X144904259Y-76176511D01*
X144875817Y-76177695D01*
X144846543Y-76178287D01*
X144831594Y-76178361D01*
X144801801Y-76178089D01*
X144772981Y-76177275D01*
X144745135Y-76175919D01*
X144705190Y-76172867D01*
X144667436Y-76168594D01*
X144631872Y-76163101D01*
X144598498Y-76156386D01*
X144567315Y-76148451D01*
X144538322Y-76139295D01*
X144511519Y-76128918D01*
X144486906Y-76117320D01*
X144471714Y-76108910D01*
X144444143Y-76091171D01*
X144420247Y-76072678D01*
X144400028Y-76053432D01*
X144383485Y-76033433D01*
X144370618Y-76012680D01*
X144359704Y-75985680D01*
X144354534Y-75957503D01*
X144354075Y-75945903D01*
X144356624Y-75920584D01*
X144364272Y-75897003D01*
X144377017Y-75875159D01*
X144394862Y-75855054D01*
X144417804Y-75836686D01*
X144445845Y-75820055D01*
X144458489Y-75813889D01*
X144486363Y-75803217D01*
X144516224Y-75794033D01*
X144543031Y-75786769D01*
X144573619Y-75779182D01*
X144607988Y-75771272D01*
X144646138Y-75763039D01*
X144673672Y-75757371D01*
X144702886Y-75751560D01*
X144733780Y-75745605D01*
X144766355Y-75739506D01*
X144800610Y-75733264D01*
X144818368Y-75730090D01*
X144865904Y-75719776D01*
X144911579Y-75709642D01*
X144955395Y-75699687D01*
X144997351Y-75689912D01*
X145037447Y-75680316D01*
X145075683Y-75670899D01*
X145112059Y-75661661D01*
X145146576Y-75652603D01*
X145179232Y-75643725D01*
X145210029Y-75635026D01*
X145238966Y-75626506D01*
X145266043Y-75618165D01*
X145303171Y-75605991D01*
X145336114Y-75594220D01*
X145355751Y-75586597D01*
X145383176Y-75574781D01*
X145409329Y-75562147D01*
X145434209Y-75548696D01*
X145457816Y-75534428D01*
X145480151Y-75519343D01*
X145501213Y-75503441D01*
X145521003Y-75486721D01*
X145539520Y-75469184D01*
X145556764Y-75450830D01*
X145572736Y-75431658D01*
X145582677Y-75418423D01*
X145596486Y-75398102D01*
X145608936Y-75377387D01*
X145620028Y-75356278D01*
X145632704Y-75327521D01*
X145640627Y-75305495D01*
X145647192Y-75283075D01*
X145652398Y-75260261D01*
X145656246Y-75237054D01*
X145658736Y-75213453D01*
X145659868Y-75189459D01*
X145659944Y-75181374D01*
X145658954Y-75152092D01*
X145655985Y-75123367D01*
X145651036Y-75095197D01*
X145644108Y-75067584D01*
X145635200Y-75040527D01*
X145624312Y-75014025D01*
X145611446Y-74988080D01*
X145596599Y-74962691D01*
X145579882Y-74937974D01*
X145561751Y-74914334D01*
X145542206Y-74891769D01*
X145521247Y-74870281D01*
X145498874Y-74849870D01*
X145475088Y-74830534D01*
X145449887Y-74812275D01*
X145423272Y-74795091D01*
X145396142Y-74779506D01*
X145372334Y-74767583D01*
X145346655Y-74756144D01*
X145319105Y-74745189D01*
X145289684Y-74734718D01*
X145258392Y-74724732D01*
X145225230Y-74715230D01*
X145199131Y-74708422D01*
X145172328Y-74701959D01*
X145145170Y-74696133D01*
X145117657Y-74690942D01*
X145089790Y-74686387D01*
X145061568Y-74682467D01*
X145032990Y-74679183D01*
X145004058Y-74676534D01*
X144974772Y-74674522D01*
X144945130Y-74673144D01*
X144915133Y-74672403D01*
X144894938Y-74672262D01*
X144864547Y-74672488D01*
X144834629Y-74673167D01*
X144805183Y-74674300D01*
X144776211Y-74675885D01*
X144747712Y-74677923D01*
X144719686Y-74680414D01*
X144678535Y-74684999D01*
X144638448Y-74690604D01*
X144599425Y-74697228D01*
X144561467Y-74704870D01*
X144524573Y-74713532D01*
X144488744Y-74723213D01*
X144465450Y-74730233D01*
X144431589Y-74741358D01*
X144399440Y-74753209D01*
X144369005Y-74765787D01*
X144340284Y-74779092D01*
X144313275Y-74793123D01*
X144287979Y-74807880D01*
X144264396Y-74823364D01*
X144242526Y-74839574D01*
X144222369Y-74856511D01*
X144203926Y-74874174D01*
X144192581Y-74886353D01*
X144176489Y-74905346D01*
X144161363Y-74925519D01*
X144147204Y-74946873D01*
X144134012Y-74969408D01*
X144121786Y-74993123D01*
X144110527Y-75018018D01*
X144100234Y-75044094D01*
X144090909Y-75071351D01*
X144082549Y-75099787D01*
X144075157Y-75129405D01*
X144070765Y-75149805D01*
X144415331Y-75186539D01*
X144422640Y-75161285D01*
X144432733Y-75137465D01*
X144445611Y-75115080D01*
X144461273Y-75094130D01*
X144479719Y-75074615D01*
X144500950Y-75056535D01*
X144524965Y-75039890D01*
X144551765Y-75024680D01*
X144581240Y-75010958D01*
X144613630Y-74999066D01*
X144648935Y-74989004D01*
X144677327Y-74982657D01*
X144707358Y-74977340D01*
X144739029Y-74973052D01*
X144772339Y-74969794D01*
X144807289Y-74967564D01*
X144843879Y-74966363D01*
X144869183Y-74966135D01*
X144899006Y-74966352D01*
X144927742Y-74967004D01*
X144968806Y-74968799D01*
X145007423Y-74971572D01*
X145043592Y-74975323D01*
X145077315Y-74980053D01*
X145108590Y-74985762D01*
X145137418Y-74992450D01*
X145163799Y-75000116D01*
X145195166Y-75011860D01*
X145215837Y-75021810D01*
X145240146Y-75036015D01*
X145265974Y-75054580D01*
X145286738Y-75074041D01*
X145302437Y-75094399D01*
X145313072Y-75115654D01*
X145319149Y-75142344D01*
X145319555Y-75151527D01*
X145316857Y-75174737D01*
X145308765Y-75196727D01*
X145295278Y-75217498D01*
X145276397Y-75237049D01*
X145255184Y-75253689D01*
X145229307Y-75268956D01*
X145203416Y-75280948D01*
X145174099Y-75291932D01*
X145147050Y-75300315D01*
X145141355Y-75301907D01*
X145114297Y-75308304D01*
X145080720Y-75315515D01*
X145046638Y-75322515D01*
X145016866Y-75328483D01*
X144983484Y-75335066D01*
X144946493Y-75342265D01*
X144905892Y-75350079D01*
X144876819Y-75355630D01*
X144846142Y-75361455D01*
X144830202Y-75364470D01*
X144784360Y-75374898D01*
X144740286Y-75385088D01*
X144697980Y-75395041D01*
X144657441Y-75404756D01*
X144618669Y-75414233D01*
X144581664Y-75423473D01*
X144546427Y-75432475D01*
X144512958Y-75441239D01*
X144481256Y-75449765D01*
X144451321Y-75458054D01*
X144423154Y-75466106D01*
X144396754Y-75473919D01*
X144360468Y-75485194D01*
X144328159Y-75495934D01*
X144308829Y-75502797D01*
X144281592Y-75513342D01*
X144255480Y-75524745D01*
X144230494Y-75537005D01*
X144206634Y-75550123D01*
X144183899Y-75564098D01*
X144162291Y-75578931D01*
X144141808Y-75594622D01*
X144122450Y-75611170D01*
X144104219Y-75628576D01*
X144087113Y-75646839D01*
X144076334Y-75659491D01*
X144061282Y-75679194D01*
X144047710Y-75699774D01*
X144035619Y-75721233D01*
X144025008Y-75743569D01*
X144015878Y-75766783D01*
X144008229Y-75790874D01*
X144002060Y-75815844D01*
X143997371Y-75841691D01*
X143994163Y-75868416D01*
X143992436Y-75896019D01*
X143992107Y-75914908D01*
X143993012Y-75942738D01*
X143995729Y-75970265D01*
X144000256Y-75997489D01*
X144006594Y-76024411D01*
X144014744Y-76051030D01*
X144024704Y-76077346D01*
X144036475Y-76103360D01*
X144050057Y-76129071D01*
X144065450Y-76154479D01*
X144082653Y-76179585D01*
X144095129Y-76196154D01*
X144115122Y-76220382D01*
X144136731Y-76243560D01*
X144159955Y-76265689D01*
X144184794Y-76286769D01*
X144211248Y-76306800D01*
X144239318Y-76325781D01*
X144269002Y-76343714D01*
X144300302Y-76360596D01*
X144333217Y-76376430D01*
X144367747Y-76391214D01*
X144391664Y-76400487D01*
X144428400Y-76413309D01*
X144466042Y-76424870D01*
X144504590Y-76435169D01*
X144544043Y-76444208D01*
X144584401Y-76451985D01*
X144611810Y-76456469D01*
X144639621Y-76460393D01*
X144667834Y-76463756D01*
X144696450Y-76466558D01*
X144725469Y-76468800D01*
X144754889Y-76470482D01*
X144784713Y-76471603D01*
X144814938Y-76472164D01*
X144830202Y-76472234D01*
X144880092Y-76471691D01*
X144928481Y-76470063D01*
X144975370Y-76467350D01*
X145020757Y-76463552D01*
X145064644Y-76458669D01*
X145107029Y-76452701D01*
X145147914Y-76445647D01*
X145187297Y-76437508D01*
X145225180Y-76428285D01*
X145261561Y-76417975D01*
X145296442Y-76406581D01*
X145329822Y-76394102D01*
X145361701Y-76380537D01*
X145392079Y-76365888D01*
X145420956Y-76350153D01*
X145448332Y-76333333D01*
X145474269Y-76315445D01*
X145499005Y-76296509D01*
X145522539Y-76276523D01*
X145544871Y-76255488D01*
X145566001Y-76233404D01*
X145585930Y-76210270D01*
X145604656Y-76186087D01*
X145622181Y-76160855D01*
X145638503Y-76134573D01*
X145653624Y-76107242D01*
X145667544Y-76078862D01*
X145680261Y-76049432D01*
X145691776Y-76018954D01*
X145702090Y-75987426D01*
X145711202Y-75954848D01*
X145719112Y-75921222D01*
G37*
G36*
X142815015Y-76187544D02*
G01*
X142764200Y-76444109D01*
X142791850Y-76449135D01*
X142827840Y-76455068D01*
X142862829Y-76460121D01*
X142896818Y-76464296D01*
X142929807Y-76467592D01*
X142961794Y-76470009D01*
X142992781Y-76471547D01*
X143022767Y-76472206D01*
X143030108Y-76472234D01*
X143065372Y-76471805D01*
X143099119Y-76470518D01*
X143131348Y-76468374D01*
X143162061Y-76465373D01*
X143191256Y-76461514D01*
X143218934Y-76456797D01*
X143253477Y-76449174D01*
X143285323Y-76440026D01*
X143314472Y-76429354D01*
X143328035Y-76423446D01*
X143353345Y-76410774D01*
X143376718Y-76397151D01*
X143403212Y-76378786D01*
X143426682Y-76358935D01*
X143447126Y-76337599D01*
X143464545Y-76314777D01*
X143476303Y-76295451D01*
X143486418Y-76272913D01*
X143495184Y-76244905D01*
X143500874Y-76220309D01*
X143505805Y-76192636D01*
X143509978Y-76161885D01*
X143513391Y-76128057D01*
X143515246Y-76103796D01*
X143516763Y-76078167D01*
X143517943Y-76051170D01*
X143518786Y-76022806D01*
X143519292Y-75993073D01*
X143519460Y-75961974D01*
X143519460Y-75002869D01*
X143778407Y-75002869D01*
X143778407Y-74708996D01*
X143519460Y-74708996D01*
X143519460Y-74284257D01*
X143169326Y-74110344D01*
X143169326Y-74708996D01*
X142815015Y-74708996D01*
X142815015Y-75002869D01*
X143169326Y-75002869D01*
X143169326Y-75953364D01*
X143169043Y-75981471D01*
X143168195Y-76006959D01*
X143166339Y-76035136D01*
X143163600Y-76059221D01*
X143159146Y-76082723D01*
X143151228Y-76104892D01*
X143135592Y-76126546D01*
X143116667Y-76143407D01*
X143093256Y-76157577D01*
X143090668Y-76158846D01*
X143063920Y-76168279D01*
X143035337Y-76174073D01*
X143006615Y-76177141D01*
X142974428Y-76178342D01*
X142969548Y-76178361D01*
X142937962Y-76178935D01*
X142906471Y-76180378D01*
X142876615Y-76182316D01*
X142844116Y-76184899D01*
X142815015Y-76187544D01*
G37*
G36*
X141675841Y-74673199D02*
G01*
X141727817Y-74676010D01*
X141778537Y-74680696D01*
X141828000Y-74687257D01*
X141876207Y-74695691D01*
X141923158Y-74706000D01*
X141968853Y-74718184D01*
X142013291Y-74732241D01*
X142056473Y-74748174D01*
X142098399Y-74765980D01*
X142139069Y-74785661D01*
X142178482Y-74807216D01*
X142216640Y-74830646D01*
X142253541Y-74855950D01*
X142289186Y-74883129D01*
X142323574Y-74912181D01*
X142340191Y-74927366D01*
X142371841Y-74958876D01*
X142401381Y-74991907D01*
X142428812Y-75026457D01*
X142454132Y-75062527D01*
X142477343Y-75100118D01*
X142498443Y-75139229D01*
X142517433Y-75179860D01*
X142534313Y-75222011D01*
X142549084Y-75265682D01*
X142555677Y-75288087D01*
X142561744Y-75310873D01*
X142567283Y-75334039D01*
X142572294Y-75357584D01*
X142576778Y-75381510D01*
X142580734Y-75405816D01*
X142584163Y-75430501D01*
X142587064Y-75455567D01*
X142589438Y-75481013D01*
X142591284Y-75506839D01*
X142592603Y-75533045D01*
X142593394Y-75559631D01*
X142593658Y-75586597D01*
X142593397Y-75612673D01*
X142592614Y-75638384D01*
X142591309Y-75663730D01*
X142589481Y-75688710D01*
X142587132Y-75713324D01*
X142584261Y-75737574D01*
X142580867Y-75761457D01*
X142576952Y-75784975D01*
X142572514Y-75808128D01*
X142567554Y-75830916D01*
X142556069Y-75875394D01*
X142542495Y-75918410D01*
X142526833Y-75959965D01*
X142509083Y-76000058D01*
X142489244Y-76038688D01*
X142467317Y-76075858D01*
X142443302Y-76111565D01*
X142417199Y-76145810D01*
X142389007Y-76178594D01*
X142358727Y-76209916D01*
X142326359Y-76239775D01*
X142292209Y-76267925D01*
X142256586Y-76294258D01*
X142219489Y-76318775D01*
X142180919Y-76341476D01*
X142140874Y-76362361D01*
X142099356Y-76381430D01*
X142056365Y-76398682D01*
X142011899Y-76414119D01*
X141965960Y-76427740D01*
X141918546Y-76439544D01*
X141869660Y-76449533D01*
X141819299Y-76457705D01*
X141767465Y-76464061D01*
X141714156Y-76468601D01*
X141659374Y-76471326D01*
X141631431Y-76472007D01*
X141603119Y-76472234D01*
X141558294Y-76471707D01*
X141514487Y-76470126D01*
X141471696Y-76467492D01*
X141429922Y-76463803D01*
X141389166Y-76459061D01*
X141349426Y-76453266D01*
X141310703Y-76446416D01*
X141272997Y-76438513D01*
X141236308Y-76429556D01*
X141200636Y-76419545D01*
X141165981Y-76408480D01*
X141132343Y-76396362D01*
X141099722Y-76383190D01*
X141068118Y-76368964D01*
X141037530Y-76353684D01*
X141007960Y-76337351D01*
X140979385Y-76320062D01*
X140951957Y-76301917D01*
X140925677Y-76282915D01*
X140900544Y-76263057D01*
X140876559Y-76242343D01*
X140853721Y-76220772D01*
X140832031Y-76198344D01*
X140811488Y-76175060D01*
X140792093Y-76150920D01*
X140773845Y-76125923D01*
X140756744Y-76100070D01*
X140740791Y-76073360D01*
X140725986Y-76045794D01*
X140712328Y-76017371D01*
X140699817Y-75988092D01*
X140688454Y-75957956D01*
X141053206Y-75921222D01*
X141063435Y-75937726D01*
X141079615Y-75961414D01*
X141096799Y-75983820D01*
X141114986Y-76004946D01*
X141134176Y-76024790D01*
X141154369Y-76043353D01*
X141175566Y-76060634D01*
X141197766Y-76076634D01*
X141220970Y-76091353D01*
X141245177Y-76104790D01*
X141270387Y-76116946D01*
X141287748Y-76124383D01*
X141314617Y-76134639D01*
X141342476Y-76143815D01*
X141371326Y-76151911D01*
X141401168Y-76158929D01*
X141432000Y-76164866D01*
X141463824Y-76169724D01*
X141496639Y-76173503D01*
X141530445Y-76176202D01*
X141565242Y-76177821D01*
X141601031Y-76178361D01*
X141633238Y-76177843D01*
X141664777Y-76176289D01*
X141695647Y-76173699D01*
X141725849Y-76170074D01*
X141755381Y-76165413D01*
X141784244Y-76159716D01*
X141812439Y-76152983D01*
X141839964Y-76145214D01*
X141866821Y-76136409D01*
X141893009Y-76126569D01*
X141918527Y-76115692D01*
X141943377Y-76103780D01*
X141967558Y-76090832D01*
X141991071Y-76076849D01*
X142013914Y-76061829D01*
X142036088Y-76045773D01*
X142057237Y-76028745D01*
X142077179Y-76010806D01*
X142095914Y-75991957D01*
X142113441Y-75972198D01*
X142129761Y-75951528D01*
X142144874Y-75929948D01*
X142158780Y-75907458D01*
X142171478Y-75884057D01*
X142182969Y-75859746D01*
X142193253Y-75834525D01*
X142202329Y-75808394D01*
X142210198Y-75781352D01*
X142216860Y-75753400D01*
X142222315Y-75724538D01*
X142226562Y-75694766D01*
X142229602Y-75664083D01*
X140678709Y-75664083D01*
X140678540Y-75657585D01*
X140677974Y-75633658D01*
X140677512Y-75608390D01*
X140677316Y-75584875D01*
X140677575Y-75557945D01*
X140678350Y-75531395D01*
X140679641Y-75505225D01*
X140681449Y-75479435D01*
X140683774Y-75454025D01*
X140686616Y-75428995D01*
X140689974Y-75404345D01*
X140693849Y-75380075D01*
X140695662Y-75370210D01*
X141049030Y-75370210D01*
X142210111Y-75370210D01*
X142207357Y-75347471D01*
X142201053Y-75314455D01*
X142192143Y-75282751D01*
X142180627Y-75252359D01*
X142166505Y-75223278D01*
X142149776Y-75195509D01*
X142130441Y-75169051D01*
X142108500Y-75143905D01*
X142083953Y-75120071D01*
X142056799Y-75097548D01*
X142027039Y-75076337D01*
X142016610Y-75069557D01*
X141984425Y-75050508D01*
X141950894Y-75033397D01*
X141916018Y-75018222D01*
X141879795Y-75004985D01*
X141842226Y-74993685D01*
X141803312Y-74984322D01*
X141763051Y-74976896D01*
X141735463Y-74973022D01*
X141707277Y-74970009D01*
X141678493Y-74967856D01*
X141649110Y-74966565D01*
X141619129Y-74966135D01*
X141585934Y-74966673D01*
X141553522Y-74968287D01*
X141521894Y-74970977D01*
X141491048Y-74974744D01*
X141460986Y-74979587D01*
X141431706Y-74985506D01*
X141403210Y-74992501D01*
X141375497Y-75000573D01*
X141348567Y-75009720D01*
X141322420Y-75019944D01*
X141297056Y-75031244D01*
X141272475Y-75043621D01*
X141248677Y-75057073D01*
X141225663Y-75071602D01*
X141203431Y-75087206D01*
X141181983Y-75103887D01*
X141168657Y-75115353D01*
X141149921Y-75133847D01*
X141132691Y-75153895D01*
X141116966Y-75175496D01*
X141102746Y-75198651D01*
X141090030Y-75223360D01*
X141078820Y-75249622D01*
X141069115Y-75277439D01*
X141060915Y-75306809D01*
X141054220Y-75337732D01*
X141049030Y-75370210D01*
X140695662Y-75370210D01*
X140698240Y-75356185D01*
X140703148Y-75332675D01*
X140708572Y-75309546D01*
X140714514Y-75286796D01*
X140727946Y-75242436D01*
X140743445Y-75199597D01*
X140761011Y-75158278D01*
X140780642Y-75118479D01*
X140802341Y-75080200D01*
X140826106Y-75043441D01*
X140851938Y-75008203D01*
X140879836Y-74974484D01*
X140909800Y-74942286D01*
X140941831Y-74911607D01*
X140975407Y-74882624D01*
X141010179Y-74855511D01*
X141046147Y-74830267D01*
X141083312Y-74806894D01*
X141121673Y-74785390D01*
X141161231Y-74765756D01*
X141201985Y-74747992D01*
X141243935Y-74732098D01*
X141287082Y-74718074D01*
X141331425Y-74705920D01*
X141376965Y-74695635D01*
X141423701Y-74687221D01*
X141471634Y-74680676D01*
X141520762Y-74676001D01*
X141571088Y-74673196D01*
X141622609Y-74672262D01*
X141675841Y-74673199D01*
G37*
G36*
X140256877Y-76435500D02*
G01*
X140256877Y-74708996D01*
X139941547Y-74708996D01*
X139941547Y-74993111D01*
X139922581Y-74966490D01*
X139902490Y-74940869D01*
X139881272Y-74916246D01*
X139858930Y-74892621D01*
X139835461Y-74869996D01*
X139810867Y-74848370D01*
X139785146Y-74827742D01*
X139758301Y-74808113D01*
X139730329Y-74789483D01*
X139701232Y-74771852D01*
X139681209Y-74760653D01*
X139650400Y-74744856D01*
X139618797Y-74730614D01*
X139586398Y-74717925D01*
X139553204Y-74706789D01*
X139519214Y-74697208D01*
X139484429Y-74689180D01*
X139448849Y-74682706D01*
X139412473Y-74677786D01*
X139375303Y-74674420D01*
X139337336Y-74672607D01*
X139311584Y-74672262D01*
X139283022Y-74672614D01*
X139255113Y-74673670D01*
X139214473Y-74676574D01*
X139175302Y-74681062D01*
X139137599Y-74687134D01*
X139101364Y-74694790D01*
X139066597Y-74704030D01*
X139033299Y-74714854D01*
X139001469Y-74727262D01*
X138971108Y-74741255D01*
X138942214Y-74756831D01*
X138932909Y-74762375D01*
X138905880Y-74779799D01*
X138880393Y-74798495D01*
X138856447Y-74818462D01*
X138834043Y-74839700D01*
X138813180Y-74862209D01*
X138793860Y-74885989D01*
X138776081Y-74911041D01*
X138759844Y-74937364D01*
X138745148Y-74964959D01*
X138731994Y-74993824D01*
X138724082Y-75013774D01*
X138708535Y-74992763D01*
X138692695Y-74972419D01*
X138676563Y-74952742D01*
X138660139Y-74933732D01*
X138626414Y-74897713D01*
X138591520Y-74864362D01*
X138555456Y-74833680D01*
X138518223Y-74805665D01*
X138479821Y-74780318D01*
X138440250Y-74757640D01*
X138399510Y-74737629D01*
X138357600Y-74720287D01*
X138314521Y-74705612D01*
X138270273Y-74693606D01*
X138224856Y-74684268D01*
X138178269Y-74677598D01*
X138130514Y-74673596D01*
X138081589Y-74672262D01*
X138043513Y-74672818D01*
X138006552Y-74674486D01*
X137970706Y-74677266D01*
X137935975Y-74681158D01*
X137902359Y-74686162D01*
X137869857Y-74692279D01*
X137838470Y-74699507D01*
X137808199Y-74707848D01*
X137779042Y-74717300D01*
X137750999Y-74727865D01*
X137724072Y-74739542D01*
X137698260Y-74752330D01*
X137673562Y-74766231D01*
X137649979Y-74781244D01*
X137627511Y-74797369D01*
X137606158Y-74814606D01*
X137586012Y-74832928D01*
X137567166Y-74852452D01*
X137549619Y-74873178D01*
X137533373Y-74895106D01*
X137518426Y-74918235D01*
X137504779Y-74942566D01*
X137492431Y-74968099D01*
X137481383Y-74994833D01*
X137471635Y-75022769D01*
X137463187Y-75051907D01*
X137456039Y-75082247D01*
X137450190Y-75113788D01*
X137445641Y-75146532D01*
X137442391Y-75180477D01*
X137440442Y-75215623D01*
X137439792Y-75251972D01*
X137439792Y-76435500D01*
X137790622Y-76435500D01*
X137790622Y-75378245D01*
X137790922Y-75347125D01*
X137791821Y-75317689D01*
X137793320Y-75289939D01*
X137795419Y-75263873D01*
X137798117Y-75239492D01*
X137802647Y-75209605D01*
X137808243Y-75182714D01*
X137814905Y-75158818D01*
X137824731Y-75133160D01*
X137836766Y-75110378D01*
X137851555Y-75089025D01*
X137869097Y-75069101D01*
X137889391Y-75050607D01*
X137912439Y-75033542D01*
X137938240Y-75017906D01*
X137949331Y-75012052D01*
X137978157Y-74998824D01*
X138008513Y-74987838D01*
X138040398Y-74979094D01*
X138073812Y-74972592D01*
X138101645Y-74969004D01*
X138130457Y-74966852D01*
X138160247Y-74966135D01*
X138200706Y-74967169D01*
X138239855Y-74970271D01*
X138277694Y-74975442D01*
X138314225Y-74982681D01*
X138349446Y-74991988D01*
X138383358Y-75003364D01*
X138415961Y-75016808D01*
X138447255Y-75032321D01*
X138477239Y-75049901D01*
X138505914Y-75069550D01*
X138524303Y-75083799D01*
X138550178Y-75107107D01*
X138573508Y-75132907D01*
X138594293Y-75161199D01*
X138612533Y-75191983D01*
X138623279Y-75213890D01*
X138632894Y-75236905D01*
X138641377Y-75261028D01*
X138648730Y-75286258D01*
X138654951Y-75312595D01*
X138660041Y-75340041D01*
X138664000Y-75368593D01*
X138666828Y-75398254D01*
X138668525Y-75429022D01*
X138669091Y-75460897D01*
X138669091Y-76435500D01*
X139022009Y-76435500D01*
X139022009Y-75345529D01*
X139022346Y-75322153D01*
X139024117Y-75288485D01*
X139027404Y-75256492D01*
X139032209Y-75226174D01*
X139038531Y-75197530D01*
X139046370Y-75170561D01*
X139055726Y-75145267D01*
X139066600Y-75121648D01*
X139078991Y-75099704D01*
X139092899Y-75079434D01*
X139108325Y-75060840D01*
X139131459Y-75038643D01*
X139158052Y-75019406D01*
X139188103Y-75003129D01*
X139221614Y-74989811D01*
X139249016Y-74981765D01*
X139278364Y-74975383D01*
X139309658Y-74970666D01*
X139342897Y-74967614D01*
X139378081Y-74966227D01*
X139390242Y-74966135D01*
X139426972Y-74967121D01*
X139463027Y-74970081D01*
X139498408Y-74975013D01*
X139533115Y-74981919D01*
X139567147Y-74990797D01*
X139600505Y-75001649D01*
X139633189Y-75014474D01*
X139665198Y-75029271D01*
X139695620Y-75045970D01*
X139723888Y-75064499D01*
X139750002Y-75084857D01*
X139773963Y-75107044D01*
X139795770Y-75131061D01*
X139815424Y-75156908D01*
X139828751Y-75177494D01*
X139840866Y-75199108D01*
X139848271Y-75214090D01*
X139858347Y-75237849D01*
X139867432Y-75263494D01*
X139875526Y-75291026D01*
X139882629Y-75320445D01*
X139888741Y-75351750D01*
X139893862Y-75384943D01*
X139896725Y-75408119D01*
X139899148Y-75432134D01*
X139901130Y-75456987D01*
X139902672Y-75482679D01*
X139903773Y-75509209D01*
X139904434Y-75536578D01*
X139904654Y-75564786D01*
X139904654Y-76435500D01*
X140256877Y-76435500D01*
G37*
G36*
X137076432Y-75921222D02*
G01*
X136727690Y-75884488D01*
X136721284Y-75910592D01*
X136713031Y-75935526D01*
X136702930Y-75959290D01*
X136690982Y-75981883D01*
X136677186Y-76003306D01*
X136661542Y-76023559D01*
X136644051Y-76042641D01*
X136624712Y-76060553D01*
X136603525Y-76077295D01*
X136580491Y-76092866D01*
X136564108Y-76102596D01*
X136537982Y-76116136D01*
X136509984Y-76128344D01*
X136480114Y-76139221D01*
X136448372Y-76148765D01*
X136414758Y-76156978D01*
X136379271Y-76163859D01*
X136341913Y-76169408D01*
X136302682Y-76173625D01*
X136261579Y-76176511D01*
X136233137Y-76177695D01*
X136203863Y-76178287D01*
X136188914Y-76178361D01*
X136159121Y-76178089D01*
X136130301Y-76177275D01*
X136102455Y-76175919D01*
X136062510Y-76172867D01*
X136024756Y-76168594D01*
X135989192Y-76163101D01*
X135955819Y-76156386D01*
X135924635Y-76148451D01*
X135895642Y-76139295D01*
X135868839Y-76128918D01*
X135844226Y-76117320D01*
X135829035Y-76108910D01*
X135801463Y-76091171D01*
X135777567Y-76072678D01*
X135757348Y-76053432D01*
X135740805Y-76033433D01*
X135727938Y-76012680D01*
X135717024Y-75985680D01*
X135711855Y-75957503D01*
X135711395Y-75945903D01*
X135713944Y-75920584D01*
X135721592Y-75897003D01*
X135734338Y-75875159D01*
X135752182Y-75855054D01*
X135775124Y-75836686D01*
X135803165Y-75820055D01*
X135815809Y-75813889D01*
X135843683Y-75803217D01*
X135873545Y-75794033D01*
X135900352Y-75786769D01*
X135930939Y-75779182D01*
X135965308Y-75771272D01*
X136003458Y-75763039D01*
X136030992Y-75757371D01*
X136060206Y-75751560D01*
X136091101Y-75745605D01*
X136123675Y-75739506D01*
X136157931Y-75733264D01*
X136175689Y-75730090D01*
X136223224Y-75719776D01*
X136268900Y-75709642D01*
X136312715Y-75699687D01*
X136354671Y-75689912D01*
X136394767Y-75680316D01*
X136433003Y-75670899D01*
X136469380Y-75661661D01*
X136503896Y-75652603D01*
X136536553Y-75643725D01*
X136567349Y-75635026D01*
X136596286Y-75626506D01*
X136623363Y-75618165D01*
X136660491Y-75605991D01*
X136693434Y-75594220D01*
X136713072Y-75586597D01*
X136740497Y-75574781D01*
X136766649Y-75562147D01*
X136791529Y-75548696D01*
X136815136Y-75534428D01*
X136837471Y-75519343D01*
X136858533Y-75503441D01*
X136878323Y-75486721D01*
X136896840Y-75469184D01*
X136914085Y-75450830D01*
X136930057Y-75431658D01*
X136939998Y-75418423D01*
X136953806Y-75398102D01*
X136966256Y-75377387D01*
X136977348Y-75356278D01*
X136990025Y-75327521D01*
X136997947Y-75305495D01*
X137004512Y-75283075D01*
X137009718Y-75260261D01*
X137013567Y-75237054D01*
X137016057Y-75213453D01*
X137017189Y-75189459D01*
X137017264Y-75181374D01*
X137016274Y-75152092D01*
X137013305Y-75123367D01*
X137008356Y-75095197D01*
X137001428Y-75067584D01*
X136992520Y-75040527D01*
X136981633Y-75014025D01*
X136968766Y-74988080D01*
X136953920Y-74962691D01*
X136937203Y-74937974D01*
X136919071Y-74914334D01*
X136899527Y-74891769D01*
X136878568Y-74870281D01*
X136856195Y-74849870D01*
X136832408Y-74830534D01*
X136807207Y-74812275D01*
X136780593Y-74795091D01*
X136753463Y-74779506D01*
X136729654Y-74767583D01*
X136703975Y-74756144D01*
X136676425Y-74745189D01*
X136647004Y-74734718D01*
X136615713Y-74724732D01*
X136582550Y-74715230D01*
X136556451Y-74708422D01*
X136529648Y-74701959D01*
X136502490Y-74696133D01*
X136474978Y-74690942D01*
X136447110Y-74686387D01*
X136418888Y-74682467D01*
X136390311Y-74679183D01*
X136361379Y-74676534D01*
X136332092Y-74674522D01*
X136302450Y-74673144D01*
X136272454Y-74672403D01*
X136252259Y-74672262D01*
X136221867Y-74672488D01*
X136191949Y-74673167D01*
X136162504Y-74674300D01*
X136133532Y-74675885D01*
X136105033Y-74677923D01*
X136077007Y-74680414D01*
X136035855Y-74684999D01*
X135995768Y-74690604D01*
X135956745Y-74697228D01*
X135918787Y-74704870D01*
X135881894Y-74713532D01*
X135846065Y-74723213D01*
X135822770Y-74730233D01*
X135788909Y-74741358D01*
X135756761Y-74753209D01*
X135726326Y-74765787D01*
X135697604Y-74779092D01*
X135670595Y-74793123D01*
X135645299Y-74807880D01*
X135621716Y-74823364D01*
X135599846Y-74839574D01*
X135579690Y-74856511D01*
X135561246Y-74874174D01*
X135549902Y-74886353D01*
X135533809Y-74905346D01*
X135518684Y-74925519D01*
X135504525Y-74946873D01*
X135491332Y-74969408D01*
X135479106Y-74993123D01*
X135467847Y-75018018D01*
X135457555Y-75044094D01*
X135448229Y-75071351D01*
X135439870Y-75099787D01*
X135432477Y-75129405D01*
X135428086Y-75149805D01*
X135772651Y-75186539D01*
X135779960Y-75161285D01*
X135790054Y-75137465D01*
X135802931Y-75115080D01*
X135818593Y-75094130D01*
X135837040Y-75074615D01*
X135858271Y-75056535D01*
X135882286Y-75039890D01*
X135909085Y-75024680D01*
X135938560Y-75010958D01*
X135970951Y-74999066D01*
X136006255Y-74989004D01*
X136034647Y-74982657D01*
X136064678Y-74977340D01*
X136096349Y-74973052D01*
X136129660Y-74969794D01*
X136164610Y-74967564D01*
X136201199Y-74966363D01*
X136226503Y-74966135D01*
X136256327Y-74966352D01*
X136285062Y-74967004D01*
X136326126Y-74968799D01*
X136364743Y-74971572D01*
X136400912Y-74975323D01*
X136434635Y-74980053D01*
X136465910Y-74985762D01*
X136494738Y-74992450D01*
X136521119Y-75000116D01*
X136552487Y-75011860D01*
X136573157Y-75021810D01*
X136597466Y-75036015D01*
X136623294Y-75054580D01*
X136644058Y-75074041D01*
X136659757Y-75094399D01*
X136670393Y-75115654D01*
X136676470Y-75142344D01*
X136676875Y-75151527D01*
X136674178Y-75174737D01*
X136666086Y-75196727D01*
X136652599Y-75217498D01*
X136633717Y-75237049D01*
X136612504Y-75253689D01*
X136586628Y-75268956D01*
X136560736Y-75280948D01*
X136531419Y-75291932D01*
X136504371Y-75300315D01*
X136498675Y-75301907D01*
X136471617Y-75308304D01*
X136438040Y-75315515D01*
X136403959Y-75322515D01*
X136374186Y-75328483D01*
X136340805Y-75335066D01*
X136303813Y-75342265D01*
X136263212Y-75350079D01*
X136234139Y-75355630D01*
X136203462Y-75361455D01*
X136187522Y-75364470D01*
X136141681Y-75374898D01*
X136097607Y-75385088D01*
X136055300Y-75395041D01*
X136014761Y-75404756D01*
X135975989Y-75414233D01*
X135938985Y-75423473D01*
X135903748Y-75432475D01*
X135870278Y-75441239D01*
X135838576Y-75449765D01*
X135808641Y-75458054D01*
X135780474Y-75466106D01*
X135754074Y-75473919D01*
X135717788Y-75485194D01*
X135685479Y-75495934D01*
X135666149Y-75502797D01*
X135638912Y-75513342D01*
X135612800Y-75524745D01*
X135587814Y-75537005D01*
X135563954Y-75550123D01*
X135541220Y-75564098D01*
X135519611Y-75578931D01*
X135499128Y-75594622D01*
X135479771Y-75611170D01*
X135461539Y-75628576D01*
X135444433Y-75646839D01*
X135433654Y-75659491D01*
X135418602Y-75679194D01*
X135405030Y-75699774D01*
X135392939Y-75721233D01*
X135382329Y-75743569D01*
X135373198Y-75766783D01*
X135365549Y-75790874D01*
X135359380Y-75815844D01*
X135354691Y-75841691D01*
X135351484Y-75868416D01*
X135349756Y-75896019D01*
X135349427Y-75914908D01*
X135350333Y-75942738D01*
X135353049Y-75970265D01*
X135357576Y-75997489D01*
X135363915Y-76024411D01*
X135372064Y-76051030D01*
X135382024Y-76077346D01*
X135393795Y-76103360D01*
X135407377Y-76129071D01*
X135422770Y-76154479D01*
X135439974Y-76179585D01*
X135452449Y-76196154D01*
X135472443Y-76220382D01*
X135494051Y-76243560D01*
X135517275Y-76265689D01*
X135542114Y-76286769D01*
X135568568Y-76306800D01*
X135596638Y-76325781D01*
X135626322Y-76343714D01*
X135657622Y-76360596D01*
X135690537Y-76376430D01*
X135725067Y-76391214D01*
X135748984Y-76400487D01*
X135785721Y-76413309D01*
X135823363Y-76424870D01*
X135861910Y-76435169D01*
X135901363Y-76444208D01*
X135941721Y-76451985D01*
X135969130Y-76456469D01*
X135996941Y-76460393D01*
X136025155Y-76463756D01*
X136053771Y-76466558D01*
X136082789Y-76468800D01*
X136112210Y-76470482D01*
X136142033Y-76471603D01*
X136172258Y-76472164D01*
X136187522Y-76472234D01*
X136237412Y-76471691D01*
X136285802Y-76470063D01*
X136332690Y-76467350D01*
X136378077Y-76463552D01*
X136421964Y-76458669D01*
X136464349Y-76452701D01*
X136505234Y-76445647D01*
X136544617Y-76437508D01*
X136582500Y-76428285D01*
X136618882Y-76417975D01*
X136653763Y-76406581D01*
X136687142Y-76394102D01*
X136719021Y-76380537D01*
X136749399Y-76365888D01*
X136778276Y-76350153D01*
X136805652Y-76333333D01*
X136831590Y-76315445D01*
X136856325Y-76296509D01*
X136879859Y-76276523D01*
X136902191Y-76255488D01*
X136923321Y-76233404D01*
X136943250Y-76210270D01*
X136961976Y-76186087D01*
X136979501Y-76160855D01*
X136995824Y-76134573D01*
X137010945Y-76107242D01*
X137024864Y-76078862D01*
X137037581Y-76049432D01*
X137049097Y-76018954D01*
X137059410Y-75987426D01*
X137068522Y-75954848D01*
X137076432Y-75921222D01*
G37*
D12*
D13*
G36*
X147103112Y-115230000D02*
G01*
X146376245Y-115230000D01*
X146353573Y-115229864D01*
X146331228Y-115229458D01*
X146309212Y-115228780D01*
X146287524Y-115227832D01*
X146266164Y-115226613D01*
X146245133Y-115225122D01*
X146224429Y-115223361D01*
X146204054Y-115221329D01*
X146184007Y-115219026D01*
X146164288Y-115216452D01*
X146135325Y-115212082D01*
X146107101Y-115207104D01*
X146079615Y-115201515D01*
X146052868Y-115195317D01*
X146035385Y-115190856D01*
X146009777Y-115183692D01*
X145984907Y-115175961D01*
X145960776Y-115167663D01*
X145937383Y-115158799D01*
X145914728Y-115149368D01*
X145892812Y-115139370D01*
X145871635Y-115128806D01*
X145851196Y-115117675D01*
X145831495Y-115105977D01*
X145812533Y-115093712D01*
X145800137Y-115085091D01*
X145781773Y-115071430D01*
X145763684Y-115056892D01*
X145745870Y-115041479D01*
X145728330Y-115025190D01*
X145711065Y-115008026D01*
X145694075Y-114989985D01*
X145677359Y-114971069D01*
X145660919Y-114951276D01*
X145644753Y-114930608D01*
X145628862Y-114909064D01*
X145623641Y-114901677D01*
X145608338Y-114878794D01*
X145593576Y-114854828D01*
X145579355Y-114829781D01*
X145570175Y-114812482D01*
X145561235Y-114794702D01*
X145552536Y-114776441D01*
X145544077Y-114757699D01*
X145535859Y-114738476D01*
X145527881Y-114718773D01*
X145520143Y-114698588D01*
X145512646Y-114677923D01*
X145505390Y-114656777D01*
X145498373Y-114635150D01*
X145491598Y-114613042D01*
X145485091Y-114590488D01*
X145479004Y-114567521D01*
X145473337Y-114544143D01*
X145468089Y-114520352D01*
X145463262Y-114496149D01*
X145458854Y-114471534D01*
X145454866Y-114446507D01*
X145451297Y-114421067D01*
X145448149Y-114395216D01*
X145445420Y-114368952D01*
X145443112Y-114342276D01*
X145441222Y-114315188D01*
X145439753Y-114287688D01*
X145438704Y-114259775D01*
X145438074Y-114231451D01*
X145437864Y-114202714D01*
X145437900Y-114198806D01*
X145712393Y-114198806D01*
X145712601Y-114226934D01*
X145713225Y-114254532D01*
X145714265Y-114281599D01*
X145715721Y-114308135D01*
X145717593Y-114334142D01*
X145719881Y-114359617D01*
X145722584Y-114384562D01*
X145725704Y-114408977D01*
X145729240Y-114432861D01*
X145733192Y-114456215D01*
X145737560Y-114479039D01*
X145742343Y-114501331D01*
X145747543Y-114523094D01*
X145753159Y-114544326D01*
X145759190Y-114565027D01*
X145765638Y-114585198D01*
X145772397Y-114604852D01*
X145779484Y-114624002D01*
X145786899Y-114642649D01*
X145794642Y-114660792D01*
X145806872Y-114687061D01*
X145819841Y-114712197D01*
X145833548Y-114736200D01*
X145847994Y-114759069D01*
X145863178Y-114780804D01*
X145879100Y-114801407D01*
X145895761Y-114820876D01*
X145913161Y-114839211D01*
X145917419Y-114843365D01*
X145935348Y-114859397D01*
X145954712Y-114874498D01*
X145975510Y-114888668D01*
X145997744Y-114901906D01*
X146015361Y-114911224D01*
X146033785Y-114920019D01*
X146053016Y-114928289D01*
X146073055Y-114936036D01*
X146093900Y-114943258D01*
X146101067Y-114945512D01*
X146123576Y-114951845D01*
X146147596Y-114957534D01*
X146173127Y-114962578D01*
X146200169Y-114966979D01*
X146228722Y-114970736D01*
X146248598Y-114972882D01*
X146269145Y-114974743D01*
X146290363Y-114976317D01*
X146312254Y-114977605D01*
X146334815Y-114978607D01*
X146358049Y-114979322D01*
X146381954Y-114979752D01*
X146406531Y-114979895D01*
X146836399Y-114979895D01*
X146836399Y-113448004D01*
X146413370Y-113448004D01*
X146384145Y-113448164D01*
X146355942Y-113448645D01*
X146328763Y-113449446D01*
X146302606Y-113450568D01*
X146277472Y-113452011D01*
X146253360Y-113453774D01*
X146230272Y-113455858D01*
X146208206Y-113458262D01*
X146187163Y-113460987D01*
X146167143Y-113464032D01*
X146139030Y-113469201D01*
X146113218Y-113475092D01*
X146089708Y-113481703D01*
X146068499Y-113489036D01*
X146050112Y-113496677D01*
X146032076Y-113505187D01*
X146014392Y-113514567D01*
X145997058Y-113524818D01*
X145980076Y-113535939D01*
X145963444Y-113547930D01*
X145947164Y-113560790D01*
X145931235Y-113574521D01*
X145915657Y-113589123D01*
X145900430Y-113604594D01*
X145885554Y-113620935D01*
X145871029Y-113638147D01*
X145856855Y-113656228D01*
X145843032Y-113675180D01*
X145829561Y-113695002D01*
X145816441Y-113715694D01*
X145803841Y-113737330D01*
X145792054Y-113760108D01*
X145781081Y-113784027D01*
X145770920Y-113809086D01*
X145761572Y-113835287D01*
X145753037Y-113862629D01*
X145745314Y-113891112D01*
X145738405Y-113920736D01*
X145732308Y-113951501D01*
X145727025Y-113983407D01*
X145722554Y-114016454D01*
X145718896Y-114050642D01*
X145716051Y-114085972D01*
X145714019Y-114122442D01*
X145712800Y-114160054D01*
X145712393Y-114198806D01*
X145437900Y-114198806D01*
X145438173Y-114169001D01*
X145439101Y-114135761D01*
X145440646Y-114102994D01*
X145442810Y-114070701D01*
X145445592Y-114038881D01*
X145448992Y-114007534D01*
X145453011Y-113976660D01*
X145457648Y-113946259D01*
X145462903Y-113916332D01*
X145468776Y-113886878D01*
X145475268Y-113857897D01*
X145482377Y-113829389D01*
X145490105Y-113801354D01*
X145498452Y-113773793D01*
X145507416Y-113746705D01*
X145516999Y-113720090D01*
X145527146Y-113693947D01*
X145537927Y-113668395D01*
X145549342Y-113643434D01*
X145561390Y-113619065D01*
X145574071Y-113595288D01*
X145587387Y-113572102D01*
X145601335Y-113549508D01*
X145615917Y-113527505D01*
X145631133Y-113506093D01*
X145646982Y-113485274D01*
X145663464Y-113465045D01*
X145680580Y-113445409D01*
X145698330Y-113426363D01*
X145716713Y-113407910D01*
X145735730Y-113390048D01*
X145755380Y-113372777D01*
X145770843Y-113359843D01*
X145786704Y-113347421D01*
X145802961Y-113335511D01*
X145819616Y-113324112D01*
X145836667Y-113313224D01*
X145854115Y-113302847D01*
X145871960Y-113292982D01*
X145890202Y-113283628D01*
X145908841Y-113274786D01*
X145927876Y-113266455D01*
X145947309Y-113258635D01*
X145967138Y-113251327D01*
X145987365Y-113244530D01*
X146007988Y-113238245D01*
X146029008Y-113232471D01*
X146050425Y-113227208D01*
X146066368Y-113223659D01*
X146091906Y-113218765D01*
X146119393Y-113214385D01*
X146138801Y-113211752D01*
X146159075Y-113209348D01*
X146180215Y-113207173D01*
X146202222Y-113205226D01*
X146225095Y-113203509D01*
X146248834Y-113202021D01*
X146273440Y-113200761D01*
X146298912Y-113199731D01*
X146325250Y-113198929D01*
X146352454Y-113198357D01*
X146380525Y-113198014D01*
X146409462Y-113197899D01*
X147103112Y-113197899D01*
X147103112Y-115230000D01*
G37*
G36*
X145303531Y-115230000D02*
G01*
X145020697Y-115230000D01*
X144799413Y-114604738D01*
X143957264Y-114604738D01*
X143722302Y-115230000D01*
X143418953Y-115230000D01*
X143773939Y-114354633D01*
X144039818Y-114354633D01*
X144722721Y-114354633D01*
X144501437Y-113805575D01*
X144492770Y-113781739D01*
X144484355Y-113758101D01*
X144476192Y-113734661D01*
X144468281Y-113711420D01*
X144460622Y-113688377D01*
X144453214Y-113665532D01*
X144446059Y-113642887D01*
X144439155Y-113620439D01*
X144432503Y-113598190D01*
X144426103Y-113576140D01*
X144419955Y-113554287D01*
X144414059Y-113532634D01*
X144408415Y-113511179D01*
X144403022Y-113489922D01*
X144397882Y-113468864D01*
X144392993Y-113448004D01*
X144386939Y-113466034D01*
X144380499Y-113484953D01*
X144373673Y-113504762D01*
X144366462Y-113525459D01*
X144358866Y-113547046D01*
X144350884Y-113569522D01*
X144342517Y-113592887D01*
X144333764Y-113617142D01*
X144324626Y-113642286D01*
X144315103Y-113668318D01*
X144305194Y-113695240D01*
X144294899Y-113723052D01*
X144284219Y-113751752D01*
X144273154Y-113781342D01*
X144261703Y-113811821D01*
X144249867Y-113843189D01*
X144039818Y-114354633D01*
X143773939Y-114354633D01*
X144243028Y-113197899D01*
X144530258Y-113197899D01*
X145303531Y-115230000D01*
G37*
D12*
D13*
G36*
X131326786Y-117873527D02*
G01*
X131079612Y-117842264D01*
X131074067Y-117864702D01*
X131068056Y-117886342D01*
X131061580Y-117907185D01*
X131054638Y-117927230D01*
X131047231Y-117946477D01*
X131039358Y-117964927D01*
X131026675Y-117991107D01*
X131012945Y-118015491D01*
X130998168Y-118038081D01*
X130982342Y-118058877D01*
X130965470Y-118077878D01*
X130947549Y-118095084D01*
X130935020Y-118105558D01*
X130915396Y-118119962D01*
X130894989Y-118132949D01*
X130873802Y-118144520D01*
X130851833Y-118154673D01*
X130829082Y-118163410D01*
X130805551Y-118170731D01*
X130781238Y-118176634D01*
X130756143Y-118181120D01*
X130730267Y-118184190D01*
X130703610Y-118185843D01*
X130685404Y-118186158D01*
X130663758Y-118185708D01*
X130642540Y-118184357D01*
X130621748Y-118182105D01*
X130601385Y-118178953D01*
X130581448Y-118174900D01*
X130561939Y-118169946D01*
X130542858Y-118164092D01*
X130524204Y-118157337D01*
X130505977Y-118149682D01*
X130488178Y-118141126D01*
X130470806Y-118131669D01*
X130453862Y-118121311D01*
X130437345Y-118110053D01*
X130421256Y-118097895D01*
X130405594Y-118084835D01*
X130390359Y-118070875D01*
X130375807Y-118056188D01*
X130362195Y-118041070D01*
X130349521Y-118025521D01*
X130337786Y-118009540D01*
X130326989Y-117993128D01*
X130312555Y-117967701D01*
X130300233Y-117941304D01*
X130290024Y-117913937D01*
X130284391Y-117895154D01*
X130279697Y-117875938D01*
X130275942Y-117856292D01*
X130273125Y-117836215D01*
X130271248Y-117815706D01*
X130270309Y-117794766D01*
X130270191Y-117784134D01*
X130270626Y-117763963D01*
X130271932Y-117744239D01*
X130275521Y-117715489D01*
X130281068Y-117687744D01*
X130288573Y-117661004D01*
X130298035Y-117635268D01*
X130309455Y-117610537D01*
X130322833Y-117586811D01*
X130338169Y-117564089D01*
X130355463Y-117542372D01*
X130374714Y-117521659D01*
X130381566Y-117514979D01*
X130402981Y-117495948D01*
X130425461Y-117478789D01*
X130449006Y-117463502D01*
X130473615Y-117450086D01*
X130499289Y-117438543D01*
X130526028Y-117428872D01*
X130553832Y-117421072D01*
X130572959Y-117416912D01*
X130592560Y-117413584D01*
X130612633Y-117411089D01*
X130633180Y-117409425D01*
X130654200Y-117408593D01*
X130664888Y-117408489D01*
X130687564Y-117409157D01*
X130711933Y-117411160D01*
X130732648Y-117413725D01*
X130754447Y-117417144D01*
X130777329Y-117421418D01*
X130801296Y-117426547D01*
X130826346Y-117432531D01*
X130839277Y-117435844D01*
X130811434Y-117185739D01*
X130791839Y-117187409D01*
X130771866Y-117188182D01*
X130752266Y-117187903D01*
X130723323Y-117186440D01*
X130694930Y-117183724D01*
X130667086Y-117179754D01*
X130639792Y-117174531D01*
X130613047Y-117168054D01*
X130586852Y-117160323D01*
X130561207Y-117151338D01*
X130536111Y-117141100D01*
X130511564Y-117129608D01*
X130487568Y-117116863D01*
X130464957Y-117102720D01*
X130444571Y-117087222D01*
X130426409Y-117070366D01*
X130410471Y-117052154D01*
X130396756Y-117032585D01*
X130385266Y-117011659D01*
X130376000Y-116989377D01*
X130368957Y-116965737D01*
X130364139Y-116940742D01*
X130361544Y-116914389D01*
X130361050Y-116896067D01*
X130361861Y-116874263D01*
X130364296Y-116853180D01*
X130368353Y-116832818D01*
X130374033Y-116813177D01*
X130381336Y-116794258D01*
X130390262Y-116776060D01*
X130400810Y-116758583D01*
X130412982Y-116741828D01*
X130426776Y-116725794D01*
X130442194Y-116710481D01*
X130453374Y-116700673D01*
X130471065Y-116686793D01*
X130489701Y-116674278D01*
X130509281Y-116663128D01*
X130529806Y-116653343D01*
X130551276Y-116644924D01*
X130573690Y-116637870D01*
X130597048Y-116632181D01*
X130621352Y-116627858D01*
X130646599Y-116624900D01*
X130672791Y-116623307D01*
X130690778Y-116623004D01*
X130717376Y-116623691D01*
X130743133Y-116625751D01*
X130768049Y-116629186D01*
X130792123Y-116633995D01*
X130815356Y-116640177D01*
X130837747Y-116647733D01*
X130859297Y-116656663D01*
X130880005Y-116666967D01*
X130899871Y-116678645D01*
X130918897Y-116691697D01*
X130931113Y-116701161D01*
X130948551Y-116716503D01*
X130964778Y-116733218D01*
X130979795Y-116751308D01*
X130993601Y-116770771D01*
X131006196Y-116791608D01*
X131017580Y-116813818D01*
X131027754Y-116837403D01*
X131036717Y-116862362D01*
X131044469Y-116888694D01*
X131051011Y-116916400D01*
X131054699Y-116935635D01*
X131301873Y-116904371D01*
X131295744Y-116873187D01*
X131288715Y-116842891D01*
X131280784Y-116813484D01*
X131271953Y-116784967D01*
X131262222Y-116757339D01*
X131251590Y-116730600D01*
X131240057Y-116704751D01*
X131227623Y-116679790D01*
X131214289Y-116655719D01*
X131200054Y-116632537D01*
X131184919Y-116610244D01*
X131168883Y-116588840D01*
X131151946Y-116568326D01*
X131134109Y-116548700D01*
X131115371Y-116529964D01*
X131095732Y-116512117D01*
X131075338Y-116495259D01*
X131054333Y-116479488D01*
X131032718Y-116464805D01*
X131010491Y-116451209D01*
X130987655Y-116438701D01*
X130964207Y-116427281D01*
X130940150Y-116416949D01*
X130915481Y-116407704D01*
X130890202Y-116399546D01*
X130864312Y-116392477D01*
X130837812Y-116386495D01*
X130810701Y-116381600D01*
X130782979Y-116377793D01*
X130754647Y-116375074D01*
X130725704Y-116373443D01*
X130696151Y-116372899D01*
X130675675Y-116373168D01*
X130655401Y-116373975D01*
X130635329Y-116375320D01*
X130615459Y-116377204D01*
X130595792Y-116379625D01*
X130576327Y-116382585D01*
X130557064Y-116386082D01*
X130528549Y-116392338D01*
X130500490Y-116399804D01*
X130472885Y-116408481D01*
X130445735Y-116418368D01*
X130419041Y-116429467D01*
X130392801Y-116441775D01*
X130367365Y-116455045D01*
X130343079Y-116469207D01*
X130319943Y-116484262D01*
X130297959Y-116500211D01*
X130277125Y-116517052D01*
X130257441Y-116534786D01*
X130238908Y-116553414D01*
X130221526Y-116572934D01*
X130205294Y-116593347D01*
X130190213Y-116614654D01*
X130180799Y-116629354D01*
X130167617Y-116651739D01*
X130155731Y-116674382D01*
X130145142Y-116697283D01*
X130135850Y-116720441D01*
X130127855Y-116743857D01*
X130121156Y-116767531D01*
X130115753Y-116791462D01*
X130111647Y-116815650D01*
X130108838Y-116840096D01*
X130107325Y-116864800D01*
X130107037Y-116881413D01*
X130107651Y-116904937D01*
X130109493Y-116928067D01*
X130112563Y-116950801D01*
X130116860Y-116973141D01*
X130122386Y-116995086D01*
X130129139Y-117016635D01*
X130137121Y-117037790D01*
X130146330Y-117058550D01*
X130156767Y-117078914D01*
X130168432Y-117098884D01*
X130176891Y-117111978D01*
X130190585Y-117131113D01*
X130205473Y-117149502D01*
X130221554Y-117167143D01*
X130238829Y-117184037D01*
X130257298Y-117200184D01*
X130276960Y-117215585D01*
X130297815Y-117230238D01*
X130319864Y-117244144D01*
X130343107Y-117257303D01*
X130367543Y-117269715D01*
X130384497Y-117277575D01*
X130362462Y-117283242D01*
X130341052Y-117289619D01*
X130320269Y-117296706D01*
X130300111Y-117304502D01*
X130280579Y-117313009D01*
X130261673Y-117322225D01*
X130243393Y-117332151D01*
X130225739Y-117342787D01*
X130208711Y-117354133D01*
X130192308Y-117366189D01*
X130176532Y-117378954D01*
X130161381Y-117392430D01*
X130146856Y-117406615D01*
X130132957Y-117421510D01*
X130119684Y-117437115D01*
X130107037Y-117453429D01*
X130095029Y-117470362D01*
X130083796Y-117487822D01*
X130073337Y-117505808D01*
X130063654Y-117524321D01*
X130054744Y-117543360D01*
X130046610Y-117562926D01*
X130039250Y-117583019D01*
X130032665Y-117603639D01*
X130026855Y-117624785D01*
X130021819Y-117646458D01*
X130017558Y-117668657D01*
X130014072Y-117691383D01*
X130011361Y-117714636D01*
X130009424Y-117738415D01*
X130008262Y-117762721D01*
X130007875Y-117787554D01*
X130008626Y-117821179D01*
X130010882Y-117854156D01*
X130014641Y-117886483D01*
X130019904Y-117918162D01*
X130026670Y-117949193D01*
X130034940Y-117979574D01*
X130044713Y-118009307D01*
X130055990Y-118038391D01*
X130068771Y-118066826D01*
X130083056Y-118094613D01*
X130098844Y-118121750D01*
X130116135Y-118148239D01*
X130134930Y-118174079D01*
X130155229Y-118199271D01*
X130177032Y-118223813D01*
X130200338Y-118247707D01*
X130224734Y-118270540D01*
X130249927Y-118291900D01*
X130275918Y-118311787D01*
X130302706Y-118330200D01*
X130330292Y-118347141D01*
X130358676Y-118362608D01*
X130387857Y-118376602D01*
X130417836Y-118389124D01*
X130448613Y-118400172D01*
X130480187Y-118409747D01*
X130512559Y-118417849D01*
X130545728Y-118424478D01*
X130579695Y-118429634D01*
X130614459Y-118433316D01*
X130650021Y-118435526D01*
X130686381Y-118436263D01*
X130719186Y-118435650D01*
X130751289Y-118433813D01*
X130782689Y-118430750D01*
X130813387Y-118426462D01*
X130843384Y-118420950D01*
X130872677Y-118414212D01*
X130901269Y-118406249D01*
X130929159Y-118397062D01*
X130956346Y-118386649D01*
X130982831Y-118375011D01*
X131008614Y-118362148D01*
X131033695Y-118348060D01*
X131058073Y-118332748D01*
X131081749Y-118316210D01*
X131104723Y-118298447D01*
X131126995Y-118279459D01*
X131148269Y-118259498D01*
X131168372Y-118238815D01*
X131187302Y-118217411D01*
X131205061Y-118195286D01*
X131221649Y-118172440D01*
X131237065Y-118148873D01*
X131251309Y-118124584D01*
X131264382Y-118099574D01*
X131276283Y-118073842D01*
X131287013Y-118047390D01*
X131296570Y-118020216D01*
X131304957Y-117992321D01*
X131312171Y-117963704D01*
X131318215Y-117934366D01*
X131323086Y-117904307D01*
X131326786Y-117873527D01*
G37*
G36*
X129852048Y-117685949D02*
G01*
X129852048Y-117936053D01*
X128978147Y-117936053D01*
X128978147Y-118405000D01*
X128730973Y-118405000D01*
X128730973Y-117936053D01*
X128458886Y-117936053D01*
X128458886Y-117685949D01*
X128730973Y-117685949D01*
X128730973Y-116806674D01*
X128978147Y-116806674D01*
X128978147Y-117685949D01*
X129608782Y-117685949D01*
X128978147Y-116806674D01*
X128730973Y-116806674D01*
X128730973Y-116404162D01*
X128932718Y-116404162D01*
X129852048Y-117685949D01*
G37*
D12*
D13*
G36*
X135185115Y-80023632D02*
G01*
X135185115Y-79460896D01*
X135733196Y-79460896D01*
X135733196Y-79210792D01*
X135185115Y-79210792D01*
X135185115Y-78648056D01*
X134951618Y-78648056D01*
X134951618Y-79210792D01*
X134403538Y-79210792D01*
X134403538Y-79460896D01*
X134951618Y-79460896D01*
X134951618Y-80023632D01*
X135185115Y-80023632D01*
G37*
D14*
%TO.P,J3,1,Pin_1*%
%TO.N,GND*%
X162560000Y-73660000D03*
D15*
%TO.P,J3,2,Pin_2*%
%TO.N,unconnected-(J3-Pin_2-Pad2)*%
X165100000Y-73660000D03*
%TO.P,J3,3,Pin_3*%
%TO.N,GND*%
X162560000Y-76200000D03*
%TO.P,J3,4,Pin_4*%
%TO.N,unconnected-(J3-Pin_4-Pad4)*%
X165100000Y-76200000D03*
%TO.P,J3,5,Pin_5*%
%TO.N,GND*%
X162560000Y-78740000D03*
%TO.P,J3,6,Pin_6*%
%TO.N,unconnected-(J3-Pin_6-Pad6)*%
X165100000Y-78740000D03*
%TO.P,J3,7,Pin_7*%
%TO.N,unconnected-(J3-Pin_7-Pad7)*%
X162560000Y-81280000D03*
%TO.P,J3,8,Pin_8*%
%TO.N,/FDC_IP*%
X165100000Y-81280000D03*
%TO.P,J3,9,Pin_9*%
%TO.N,unconnected-(J3-Pin_9-Pad9)*%
X162560000Y-83820000D03*
%TO.P,J3,10,Pin_10*%
%TO.N,/DS2*%
X165100000Y-83820000D03*
%TO.P,J3,11,Pin_11*%
%TO.N,GND*%
X162560000Y-86360000D03*
%TO.P,J3,12,Pin_12*%
%TO.N,/DS3*%
X165100000Y-86360000D03*
%TO.P,J3,13,Pin_13*%
%TO.N,GND*%
X162560000Y-88900000D03*
%TO.P,J3,14,Pin_14*%
%TO.N,unconnected-(J3-Pin_14-Pad14)*%
X165100000Y-88900000D03*
%TO.P,J3,15,Pin_15*%
%TO.N,GND*%
X162560000Y-91440000D03*
%TO.P,J3,16,Pin_16*%
%TO.N,/MOTOR_ON*%
X165100000Y-91440000D03*
%TO.P,J3,17,Pin_17*%
%TO.N,unconnected-(J3-Pin_17-Pad17)*%
X162560000Y-93980000D03*
%TO.P,J3,18,Pin_18*%
%TO.N,/DIR*%
X165100000Y-93980000D03*
%TO.P,J3,19,Pin_19*%
%TO.N,unconnected-(J3-Pin_19-Pad19)*%
X162560000Y-96520000D03*
%TO.P,J3,20,Pin_20*%
%TO.N,/STEP*%
X165100000Y-96520000D03*
%TO.P,J3,21,Pin_21*%
%TO.N,unconnected-(J3-Pin_21-Pad21)*%
X162560000Y-99060000D03*
%TO.P,J3,22,Pin_22*%
%TO.N,/DATA_WR*%
X165100000Y-99060000D03*
%TO.P,J3,23,Pin_23*%
%TO.N,unconnected-(J3-Pin_23-Pad23)*%
X162560000Y-101600000D03*
%TO.P,J3,24,Pin_24*%
%TO.N,/GATE_WR*%
X165100000Y-101600000D03*
%TO.P,J3,25,Pin_25*%
%TO.N,unconnected-(J3-Pin_25-Pad25)*%
X162560000Y-104140000D03*
%TO.P,J3,26,Pin_26*%
%TO.N,/FDC_T0*%
X165100000Y-104140000D03*
%TO.P,J3,27,Pin_27*%
%TO.N,unconnected-(J3-Pin_27-Pad27)*%
X162560000Y-106680000D03*
%TO.P,J3,28,Pin_28*%
%TO.N,/FDC_WPRT*%
X165100000Y-106680000D03*
%TO.P,J3,29,Pin_29*%
%TO.N,unconnected-(J3-Pin_29-Pad29)*%
X162560000Y-109220000D03*
%TO.P,J3,30,Pin_30*%
%TO.N,/FDC_RD*%
X165100000Y-109220000D03*
%TO.P,J3,31,Pin_31*%
%TO.N,unconnected-(J3-Pin_31-Pad31)*%
X162560000Y-111760000D03*
%TO.P,J3,32,Pin_32*%
%TO.N,/HEAD*%
X165100000Y-111760000D03*
%TO.P,J3,33,Pin_33*%
%TO.N,GND*%
X162560000Y-114300000D03*
%TO.P,J3,34,Pin_34*%
%TO.N,unconnected-(J3-Pin_34-Pad34)*%
X165100000Y-114300000D03*
%TD*%
D16*
%TO.P,U1,1,A0*%
%TO.N,/DS0T*%
X139700000Y-81280000D03*
D17*
%TO.P,U1,2,A1*%
%TO.N,/DS1T*%
X139700000Y-83820000D03*
%TO.P,U1,3,A2*%
%TO.N,/MOTOR_ON*%
X139700000Y-86360000D03*
%TO.P,U1,4,E1*%
%TO.N,GND*%
X139700000Y-88900000D03*
%TO.P,U1,5,E2*%
%TO.N,unconnected-(U1-E2-Pad5)*%
X139700000Y-91440000D03*
%TO.P,U1,6,E3*%
%TO.N,Net-(D1-K)*%
X139700000Y-93980000D03*
%TO.P,U1,7,O7*%
%TO.N,Net-(D2-K)*%
X139700000Y-96520000D03*
%TO.P,U1,8,GND*%
%TO.N,GND*%
X139700000Y-99060000D03*
%TO.P,U1,9,O6*%
%TO.N,unconnected-(U1-O6-Pad9)*%
X147320000Y-99060000D03*
%TO.P,U1,10,O5*%
%TO.N,unconnected-(U1-O5-Pad10)*%
X147320000Y-96520000D03*
%TO.P,U1,11,O4*%
%TO.N,unconnected-(U1-O4-Pad11)*%
X147320000Y-93980000D03*
%TO.P,U1,12,O3*%
%TO.N,/DS0*%
X147320000Y-91440000D03*
%TO.P,U1,13,O2*%
%TO.N,/DS1*%
X147320000Y-88900000D03*
%TO.P,U1,14,O1*%
%TO.N,/DS2*%
X147320000Y-86360000D03*
%TO.P,U1,15,O0*%
%TO.N,/DS3*%
X147320000Y-83820000D03*
%TO.P,U1,16,VCC*%
%TO.N,Net-(D1-K)*%
X147320000Y-81280000D03*
%TD*%
D16*
%TO.P,D1,1,K*%
%TO.N,Net-(D1-K)*%
X134620000Y-91440000D03*
D17*
%TO.P,D1,2,A*%
%TO.N,/FDC_IP*%
X134620000Y-81280000D03*
%TD*%
D18*
%TO.P,C1,1*%
%TO.N,Net-(D1-K)*%
X137160000Y-88900000D03*
%TO.P,C1,2*%
%TO.N,GND*%
X137160000Y-98900000D03*
%TD*%
D14*
%TO.P,J2,1,Pin_1*%
%TO.N,GND*%
X152400000Y-73660000D03*
D15*
%TO.P,J2,2,Pin_2*%
%TO.N,unconnected-(J2-Pin_2-Pad2)*%
X154940000Y-73660000D03*
%TO.P,J2,3,Pin_3*%
%TO.N,GND*%
X152400000Y-76200000D03*
%TO.P,J2,4,Pin_4*%
%TO.N,unconnected-(J2-Pin_4-Pad4)*%
X154940000Y-76200000D03*
%TO.P,J2,5,Pin_5*%
%TO.N,unconnected-(J2-Pin_5-Pad5)*%
X152400000Y-78740000D03*
%TO.P,J2,6,Pin_6*%
%TO.N,/DS3*%
X154940000Y-78740000D03*
%TO.P,J2,7,Pin_7*%
%TO.N,unconnected-(J2-Pin_7-Pad7)*%
X152400000Y-81280000D03*
%TO.P,J2,8,Pin_8*%
%TO.N,/FDC_IP*%
X154940000Y-81280000D03*
%TO.P,J2,9,Pin_9*%
%TO.N,unconnected-(J2-Pin_9-Pad9)*%
X152400000Y-83820000D03*
%TO.P,J2,10,Pin_10*%
%TO.N,/DS0*%
X154940000Y-83820000D03*
%TO.P,J2,11,Pin_11*%
%TO.N,unconnected-(J2-Pin_11-Pad11)*%
X152400000Y-86360000D03*
%TO.P,J2,12,Pin_12*%
%TO.N,/DS1*%
X154940000Y-86360000D03*
%TO.P,J2,13,Pin_13*%
%TO.N,GND*%
X152400000Y-88900000D03*
%TO.P,J2,14,Pin_14*%
%TO.N,/DS2*%
X154940000Y-88900000D03*
%TO.P,J2,15,Pin_15*%
%TO.N,GND*%
X152400000Y-91440000D03*
%TO.P,J2,16,Pin_16*%
%TO.N,/MOTOR_ON*%
X154940000Y-91440000D03*
%TO.P,J2,17,Pin_17*%
%TO.N,unconnected-(J2-Pin_17-Pad17)*%
X152400000Y-93980000D03*
%TO.P,J2,18,Pin_18*%
%TO.N,/DIR*%
X154940000Y-93980000D03*
%TO.P,J2,19,Pin_19*%
%TO.N,unconnected-(J2-Pin_19-Pad19)*%
X152400000Y-96520000D03*
%TO.P,J2,20,Pin_20*%
%TO.N,/STEP*%
X154940000Y-96520000D03*
%TO.P,J2,21,Pin_21*%
%TO.N,unconnected-(J2-Pin_21-Pad21)*%
X152400000Y-99060000D03*
%TO.P,J2,22,Pin_22*%
%TO.N,/DATA_WR*%
X154940000Y-99060000D03*
%TO.P,J2,23,Pin_23*%
%TO.N,unconnected-(J2-Pin_23-Pad23)*%
X152400000Y-101600000D03*
%TO.P,J2,24,Pin_24*%
%TO.N,/GATE_WR*%
X154940000Y-101600000D03*
%TO.P,J2,25,Pin_25*%
%TO.N,unconnected-(J2-Pin_25-Pad25)*%
X152400000Y-104140000D03*
%TO.P,J2,26,Pin_26*%
%TO.N,/FDC_T0*%
X154940000Y-104140000D03*
%TO.P,J2,27,Pin_27*%
%TO.N,unconnected-(J2-Pin_27-Pad27)*%
X152400000Y-106680000D03*
%TO.P,J2,28,Pin_28*%
%TO.N,/FDC_WPRT*%
X154940000Y-106680000D03*
%TO.P,J2,29,Pin_29*%
%TO.N,unconnected-(J2-Pin_29-Pad29)*%
X152400000Y-109220000D03*
%TO.P,J2,30,Pin_30*%
%TO.N,/FDC_RD*%
X154940000Y-109220000D03*
%TO.P,J2,31,Pin_31*%
%TO.N,unconnected-(J2-Pin_31-Pad31)*%
X152400000Y-111760000D03*
%TO.P,J2,32,Pin_32*%
%TO.N,/HEAD*%
X154940000Y-111760000D03*
%TO.P,J2,33,Pin_33*%
%TO.N,GND*%
X152400000Y-114300000D03*
%TO.P,J2,34,Pin_34*%
%TO.N,unconnected-(J2-Pin_34-Pad34)*%
X154940000Y-114300000D03*
%TD*%
D19*
%TO.P,J4,1,Pin_1*%
%TO.N,GND*%
X134620000Y-114300000D03*
%TD*%
D20*
%TO.P,J1,2,Pin_2*%
%TO.N,unconnected-(J1-Pin_2-Pad2)*%
X128905000Y-73660000D03*
%TO.P,J1,4,Pin_4*%
%TO.N,unconnected-(J1-Pin_4-Pad4)*%
X128905000Y-76200000D03*
%TO.P,J1,6,Pin_6*%
%TO.N,unconnected-(J1-Pin_6-Pad6)*%
X128905000Y-78740000D03*
%TO.P,J1,8,Pin_8*%
%TO.N,/FDC_IP*%
X128905000Y-81280000D03*
%TO.P,J1,10,Pin_10*%
%TO.N,/DS0T*%
X128905000Y-83820000D03*
%TO.P,J1,12,Pin_12*%
%TO.N,/DS1T*%
X128905000Y-86360000D03*
%TO.P,J1,14,Pin_14*%
%TO.N,unconnected-(J1-Pin_14-Pad14)*%
X128905000Y-88900000D03*
%TO.P,J1,16,Pin_16*%
%TO.N,/MOTOR_ON*%
X128905000Y-91440000D03*
%TO.P,J1,18,Pin_18*%
%TO.N,/DIR*%
X128905000Y-93980000D03*
%TO.P,J1,20,Pin_20*%
%TO.N,/STEP*%
X128905000Y-96520000D03*
%TO.P,J1,22,Pin_22*%
%TO.N,/DATA_WR*%
X128905000Y-99060000D03*
%TO.P,J1,24,Pin_24*%
%TO.N,/GATE_WR*%
X128905000Y-101600000D03*
%TO.P,J1,26,Pin_26*%
%TO.N,/FDC_T0*%
X128905000Y-104140000D03*
%TO.P,J1,28,Pin_28*%
%TO.N,/FDC_WPRT*%
X128905000Y-106680000D03*
%TO.P,J1,30,Pin_30*%
%TO.N,/FDC_RD*%
X128905000Y-109220000D03*
%TO.P,J1,32,Pin_32*%
%TO.N,/HEAD*%
X128905000Y-111760000D03*
%TO.P,J1,34,Pin_34*%
%TO.N,unconnected-(J1-Pin_34-Pad34)*%
X128905000Y-114300000D03*
%TD*%
D21*
%TO.N,GND*%
X162560000Y-88900000D02*
X163830000Y-90170000D01*
X139700000Y-99060000D02*
X137770000Y-99060000D01*
X137160000Y-96520000D02*
X137160000Y-99060000D01*
D22*
X168910000Y-90170000D02*
X168910000Y-73660000D01*
X152400000Y-118110000D02*
X162560000Y-118110000D01*
D21*
X136657500Y-87312500D02*
X133350000Y-90620000D01*
X146050000Y-92710000D02*
X148590000Y-92710000D01*
X149860000Y-91440000D02*
X152400000Y-91440000D01*
D22*
X165100000Y-69850000D02*
X162560000Y-69850000D01*
D21*
X161290000Y-90170000D02*
X162560000Y-91440000D01*
D22*
X168910000Y-73660000D02*
X165100000Y-69850000D01*
D21*
X152400000Y-76200000D02*
X152400000Y-73660000D01*
D22*
X168910000Y-114300000D02*
X168910000Y-90170000D01*
X152400000Y-73660000D02*
X152400000Y-71120000D01*
D21*
X137770000Y-99060000D02*
X137610000Y-98900000D01*
D22*
X162560000Y-118110000D02*
X165100000Y-118110000D01*
D21*
X162560000Y-78740000D02*
X162560000Y-73660000D01*
X139700000Y-88900000D02*
X138112500Y-87312500D01*
X148590000Y-92710000D02*
X149860000Y-91440000D01*
X163830000Y-90170000D02*
X168910000Y-90170000D01*
X162560000Y-88900000D02*
X162560000Y-91440000D01*
D22*
X134620000Y-114300000D02*
X138430000Y-118110000D01*
X153670000Y-69850000D02*
X162560000Y-69850000D01*
X152400000Y-71120000D02*
X153670000Y-69850000D01*
D21*
X133350000Y-90620000D02*
X133350000Y-92710000D01*
X162560000Y-114300000D02*
X162560000Y-118110000D01*
X152400000Y-88900000D02*
X153670000Y-90170000D01*
X162560000Y-73660000D02*
X162560000Y-69850000D01*
X139700000Y-99060000D02*
X146050000Y-92710000D01*
X152400000Y-114300000D02*
X152400000Y-118110000D01*
X152400000Y-88900000D02*
X152400000Y-91440000D01*
D22*
X138430000Y-118110000D02*
X152400000Y-118110000D01*
D21*
X133350000Y-92710000D02*
X137160000Y-96520000D01*
X162560000Y-86360000D02*
X162560000Y-88900000D01*
D22*
X165100000Y-118110000D02*
X168910000Y-114300000D01*
D21*
X138112500Y-87312500D02*
X136657500Y-87312500D01*
X153670000Y-90170000D02*
X161290000Y-90170000D01*
%TO.N,/FDC_IP*%
X134620000Y-81280000D02*
X128270000Y-81280000D01*
X138430000Y-77470000D02*
X134620000Y-81280000D01*
X156210000Y-80010000D02*
X154940000Y-81280000D01*
X161290000Y-80010000D02*
X156210000Y-80010000D01*
X165100000Y-81280000D02*
X163830000Y-80010000D01*
X161290000Y-80010000D02*
X158750000Y-77470000D01*
X158750000Y-77470000D02*
X138430000Y-77470000D01*
X163830000Y-80010000D02*
X161290000Y-80010000D01*
%TO.N,/MOTOR_ON*%
X147320000Y-100330000D02*
X148590000Y-99060000D01*
X156210000Y-92710000D02*
X163830000Y-92710000D01*
X149860000Y-92710000D02*
X148590000Y-93980000D01*
X130810000Y-91440000D02*
X135890000Y-86360000D01*
X147320000Y-100330000D02*
X136526396Y-100330000D01*
X154940000Y-91440000D02*
X156210000Y-92710000D01*
X148590000Y-93980000D02*
X148590000Y-99060000D01*
X130176396Y-91440000D02*
X128270000Y-91440000D01*
X130810000Y-91440000D02*
X135070000Y-95700000D01*
X153670000Y-92710000D02*
X149860000Y-92710000D01*
X154940000Y-91440000D02*
X153670000Y-92710000D01*
X130810000Y-91440000D02*
X130176396Y-91440000D01*
X136526396Y-100330000D02*
X135070000Y-98873604D01*
X135070000Y-97155000D02*
X135070000Y-96333604D01*
X135070000Y-98873604D02*
X135070000Y-97155000D01*
X135070000Y-95700000D02*
X135070000Y-97155000D01*
X163830000Y-92710000D02*
X165100000Y-91440000D01*
X135890000Y-86360000D02*
X139700000Y-86360000D01*
%TO.N,/DS1*%
X153670000Y-85090000D02*
X151130000Y-85090000D01*
X154940000Y-86360000D02*
X153670000Y-85090000D01*
X151130000Y-85090000D02*
X147320000Y-88900000D01*
%TO.N,/DS0*%
X146050000Y-91440000D02*
X147320000Y-91440000D01*
X148590000Y-85090000D02*
X146050000Y-85090000D01*
X144780000Y-90170000D02*
X146050000Y-91440000D01*
X151130000Y-82550000D02*
X148590000Y-85090000D01*
X146050000Y-85090000D02*
X144780000Y-86360000D01*
X144780000Y-86360000D02*
X144780000Y-90170000D01*
X154940000Y-83820000D02*
X153670000Y-82550000D01*
X153670000Y-82550000D02*
X151130000Y-82550000D01*
%TO.N,/DIR*%
X149410000Y-96970000D02*
X151130000Y-95250000D01*
X154940000Y-93980000D02*
X156210000Y-95250000D01*
X151130000Y-95250000D02*
X153670000Y-95250000D01*
X149410000Y-100777208D02*
X149410000Y-96970000D01*
X128270000Y-93980000D02*
X132080000Y-93980000D01*
X137160000Y-101600000D02*
X148587208Y-101600000D01*
X134620000Y-99060000D02*
X137160000Y-101600000D01*
X156210000Y-95250000D02*
X163830000Y-95250000D01*
X163830000Y-95250000D02*
X165100000Y-93980000D01*
X148587208Y-101600000D02*
X149410000Y-100777208D01*
X153670000Y-95250000D02*
X154940000Y-93980000D01*
X134620000Y-96520000D02*
X134620000Y-99060000D01*
X132080000Y-93980000D02*
X134620000Y-96520000D01*
%TO.N,/STEP*%
X153670000Y-97790000D02*
X151130000Y-97790000D01*
X151130000Y-97790000D02*
X149860000Y-99060000D01*
X137160000Y-102870000D02*
X130810000Y-96520000D01*
X156210000Y-97790000D02*
X154940000Y-96520000D01*
X147953604Y-102870000D02*
X137160000Y-102870000D01*
X165100000Y-96520000D02*
X163830000Y-97790000D01*
X154940000Y-96520000D02*
X153670000Y-97790000D01*
X149860000Y-100963604D02*
X147953604Y-102870000D01*
X149860000Y-99060000D02*
X149860000Y-100963604D01*
X130810000Y-96520000D02*
X128270000Y-96520000D01*
X163830000Y-97790000D02*
X156210000Y-97790000D01*
%TO.N,/DATA_WR*%
X151130000Y-100330000D02*
X147770000Y-103690000D01*
X147770000Y-103690000D02*
X135440000Y-103690000D01*
X156210000Y-100330000D02*
X163830000Y-100330000D01*
X154940000Y-99060000D02*
X153670000Y-100330000D01*
X153670000Y-100330000D02*
X151130000Y-100330000D01*
X135440000Y-103690000D02*
X130810000Y-99060000D01*
X154940000Y-99060000D02*
X156210000Y-100330000D01*
X130810000Y-99060000D02*
X128270000Y-99060000D01*
X163830000Y-100330000D02*
X165100000Y-99060000D01*
%TO.N,/GATE_WR*%
X149860000Y-104140000D02*
X151130000Y-102870000D01*
X163830000Y-102870000D02*
X165100000Y-101600000D01*
X153670000Y-102870000D02*
X154940000Y-101600000D01*
X128270000Y-101600000D02*
X130810000Y-101600000D01*
X151130000Y-102870000D02*
X153670000Y-102870000D01*
X133350000Y-104140000D02*
X149860000Y-104140000D01*
X154940000Y-101600000D02*
X156210000Y-102870000D01*
X156210000Y-102870000D02*
X163830000Y-102870000D01*
X130810000Y-101600000D02*
X133350000Y-104140000D01*
%TO.N,/FDC_T0*%
X130810000Y-104140000D02*
X128270000Y-104140000D01*
X153670000Y-105410000D02*
X132080000Y-105410000D01*
X156210000Y-105410000D02*
X163830000Y-105410000D01*
X163830000Y-105410000D02*
X165100000Y-104140000D01*
X154940000Y-104140000D02*
X156210000Y-105410000D01*
X132080000Y-105410000D02*
X130810000Y-104140000D01*
X154940000Y-104140000D02*
X153670000Y-105410000D01*
%TO.N,/FDC_WPRT*%
X154940000Y-106680000D02*
X156210000Y-107950000D01*
X163830000Y-107950000D02*
X165100000Y-106680000D01*
X154940000Y-106680000D02*
X153670000Y-107950000D01*
X153670000Y-107950000D02*
X151130000Y-107950000D01*
X156210000Y-107950000D02*
X163830000Y-107950000D01*
X151130000Y-107950000D02*
X149860000Y-106680000D01*
X149860000Y-106680000D02*
X128270000Y-106680000D01*
%TO.N,/FDC_RD*%
X163830000Y-110490000D02*
X156210000Y-110490000D01*
X156210000Y-110490000D02*
X154940000Y-109220000D01*
X151130000Y-110490000D02*
X153670000Y-110490000D01*
X153670000Y-110490000D02*
X154940000Y-109220000D01*
X128270000Y-109220000D02*
X149860000Y-109220000D01*
X149860000Y-109220000D02*
X151130000Y-110490000D01*
X165100000Y-109220000D02*
X163830000Y-110490000D01*
%TO.N,/HEAD*%
X151130000Y-113030000D02*
X149860000Y-111760000D01*
X154940000Y-111760000D02*
X153670000Y-113030000D01*
X163830000Y-113030000D02*
X165100000Y-111760000D01*
X153670000Y-113030000D02*
X151130000Y-113030000D01*
X156210000Y-113030000D02*
X163830000Y-113030000D01*
X154940000Y-111760000D02*
X156210000Y-113030000D01*
X149860000Y-111760000D02*
X128270000Y-111760000D01*
%TO.N,/DS2*%
X153670000Y-87630000D02*
X154940000Y-88900000D01*
X146050000Y-87630000D02*
X146050000Y-89220991D01*
X158750000Y-85090000D02*
X163830000Y-85090000D01*
X165100000Y-83820000D02*
X163830000Y-85090000D01*
X146999009Y-90170000D02*
X148590000Y-90170000D01*
X147320000Y-86360000D02*
X146050000Y-87630000D01*
X148590000Y-90170000D02*
X151130000Y-87630000D01*
X151130000Y-87630000D02*
X153670000Y-87630000D01*
X154940000Y-88900000D02*
X158750000Y-85090000D01*
X146050000Y-89220991D02*
X146999009Y-90170000D01*
%TO.N,/DS3*%
X165100000Y-86360000D02*
X166370000Y-85090000D01*
X166370000Y-83428299D02*
X165491701Y-82550000D01*
X166370000Y-85090000D02*
X166370000Y-83428299D01*
X153670000Y-80010000D02*
X151130000Y-80010000D01*
X154548299Y-82550000D02*
X153670000Y-81671701D01*
X151130000Y-80010000D02*
X147320000Y-83820000D01*
X153670000Y-81671701D02*
X153670000Y-80010000D01*
X165491701Y-82550000D02*
X154548299Y-82550000D01*
X154940000Y-78740000D02*
X153670000Y-80010000D01*
%TO.N,Net-(D1-K)*%
X142240000Y-91440000D02*
X139700000Y-93980000D01*
X143510000Y-81280000D02*
X142240000Y-82550000D01*
X137160000Y-93980000D02*
X134620000Y-91440000D01*
X137160000Y-88900000D02*
X134620000Y-91440000D01*
X147320000Y-81280000D02*
X143510000Y-81280000D01*
X142240000Y-82550000D02*
X142240000Y-91440000D01*
X139700000Y-93980000D02*
X137160000Y-93980000D01*
%TO.N,/DS1T*%
X139700000Y-83820000D02*
X137795000Y-85725000D01*
X133350000Y-85725000D02*
X132715000Y-86360000D01*
X132715000Y-86360000D02*
X128270000Y-86360000D01*
X137795000Y-85725000D02*
X133350000Y-85725000D01*
%TO.N,/DS0T*%
X139700000Y-81280000D02*
X137160000Y-83820000D01*
X137160000Y-83820000D02*
X128270000Y-83820000D01*
%TD*%
M02*
