%TF.GenerationSoftware,KiCad,Pcbnew,7.0.10+1*%
%TF.CreationDate,2024-01-16T19:36:20+01:00*%
%TF.ProjectId,trump_card_4floppy_addon,7472756d-705f-4636-9172-645f34666c6f,00*%
%TF.SameCoordinates,Original*%
%TF.FileFunction,Copper,L1,Top*%
%TF.FilePolarity,Positive*%
%FSLAX46Y46*%
G04 Gerber Fmt 4.6, Leading zero omitted, Abs format (unit mm)*
G04 Created by KiCad (PCBNEW 7.0.10+1) date 2024-01-16 19:36:20*
%MOMM*%
%LPD*%
G01*
G04 APERTURE LIST*
G04 Aperture macros list*
%AMRoundRect*
0 Rectangle with rounded corners*
0 $1 Rounding radius*
0 $2 $3 $4 $5 $6 $7 $8 $9 X,Y pos of 4 corners*
0 Add a 4 corners polygon primitive as box body*
4,1,4,$2,$3,$4,$5,$6,$7,$8,$9,$2,$3,0*
0 Add four circle primitives for the rounded corners*
1,1,$1+$1,$2,$3*
1,1,$1+$1,$4,$5*
1,1,$1+$1,$6,$7*
1,1,$1+$1,$8,$9*
0 Add four rect primitives between the rounded corners*
20,1,$1+$1,$2,$3,$4,$5,0*
20,1,$1+$1,$4,$5,$6,$7,0*
20,1,$1+$1,$6,$7,$8,$9,0*
20,1,$1+$1,$8,$9,$2,$3,0*%
G04 Aperture macros list end*
%TA.AperFunction,ComponentPad*%
%ADD10R,1.700000X1.700000*%
%TD*%
%TA.AperFunction,ComponentPad*%
%ADD11O,1.700000X1.700000*%
%TD*%
%TA.AperFunction,ComponentPad*%
%ADD12R,1.600000X1.600000*%
%TD*%
%TA.AperFunction,ComponentPad*%
%ADD13O,1.600000X1.600000*%
%TD*%
%TA.AperFunction,ComponentPad*%
%ADD14C,2.000000*%
%TD*%
%TA.AperFunction,ComponentPad*%
%ADD15C,1.700000*%
%TD*%
%TA.AperFunction,SMDPad,CuDef*%
%ADD16RoundRect,0.317500X-1.532500X-0.317500X1.532500X-0.317500X1.532500X0.317500X-1.532500X0.317500X0*%
%TD*%
%TA.AperFunction,Conductor*%
%ADD17C,0.250000*%
%TD*%
%TA.AperFunction,Conductor*%
%ADD18C,1.270000*%
%TD*%
G04 APERTURE END LIST*
D10*
%TO.P,J3,1,Pin_1*%
%TO.N,GND*%
X162560000Y-73660000D03*
D11*
%TO.P,J3,2,Pin_2*%
%TO.N,unconnected-(J3-Pin_2-Pad2)*%
X165100000Y-73660000D03*
%TO.P,J3,3,Pin_3*%
%TO.N,GND*%
X162560000Y-76200000D03*
%TO.P,J3,4,Pin_4*%
%TO.N,unconnected-(J3-Pin_4-Pad4)*%
X165100000Y-76200000D03*
%TO.P,J3,5,Pin_5*%
%TO.N,GND*%
X162560000Y-78740000D03*
%TO.P,J3,6,Pin_6*%
%TO.N,unconnected-(J3-Pin_6-Pad6)*%
X165100000Y-78740000D03*
%TO.P,J3,7,Pin_7*%
%TO.N,unconnected-(J3-Pin_7-Pad7)*%
X162560000Y-81280000D03*
%TO.P,J3,8,Pin_8*%
%TO.N,/FDC_IP*%
X165100000Y-81280000D03*
%TO.P,J3,9,Pin_9*%
%TO.N,unconnected-(J3-Pin_9-Pad9)*%
X162560000Y-83820000D03*
%TO.P,J3,10,Pin_10*%
%TO.N,/DS2*%
X165100000Y-83820000D03*
%TO.P,J3,11,Pin_11*%
%TO.N,GND*%
X162560000Y-86360000D03*
%TO.P,J3,12,Pin_12*%
%TO.N,/DS3*%
X165100000Y-86360000D03*
%TO.P,J3,13,Pin_13*%
%TO.N,GND*%
X162560000Y-88900000D03*
%TO.P,J3,14,Pin_14*%
%TO.N,unconnected-(J3-Pin_14-Pad14)*%
X165100000Y-88900000D03*
%TO.P,J3,15,Pin_15*%
%TO.N,GND*%
X162560000Y-91440000D03*
%TO.P,J3,16,Pin_16*%
%TO.N,/MOTOR_ON*%
X165100000Y-91440000D03*
%TO.P,J3,17,Pin_17*%
%TO.N,unconnected-(J3-Pin_17-Pad17)*%
X162560000Y-93980000D03*
%TO.P,J3,18,Pin_18*%
%TO.N,/DIR*%
X165100000Y-93980000D03*
%TO.P,J3,19,Pin_19*%
%TO.N,unconnected-(J3-Pin_19-Pad19)*%
X162560000Y-96520000D03*
%TO.P,J3,20,Pin_20*%
%TO.N,/STEP*%
X165100000Y-96520000D03*
%TO.P,J3,21,Pin_21*%
%TO.N,unconnected-(J3-Pin_21-Pad21)*%
X162560000Y-99060000D03*
%TO.P,J3,22,Pin_22*%
%TO.N,/DATA_WR*%
X165100000Y-99060000D03*
%TO.P,J3,23,Pin_23*%
%TO.N,unconnected-(J3-Pin_23-Pad23)*%
X162560000Y-101600000D03*
%TO.P,J3,24,Pin_24*%
%TO.N,/GATE_WR*%
X165100000Y-101600000D03*
%TO.P,J3,25,Pin_25*%
%TO.N,unconnected-(J3-Pin_25-Pad25)*%
X162560000Y-104140000D03*
%TO.P,J3,26,Pin_26*%
%TO.N,/FDC_T0*%
X165100000Y-104140000D03*
%TO.P,J3,27,Pin_27*%
%TO.N,unconnected-(J3-Pin_27-Pad27)*%
X162560000Y-106680000D03*
%TO.P,J3,28,Pin_28*%
%TO.N,/FDC_WPRT*%
X165100000Y-106680000D03*
%TO.P,J3,29,Pin_29*%
%TO.N,unconnected-(J3-Pin_29-Pad29)*%
X162560000Y-109220000D03*
%TO.P,J3,30,Pin_30*%
%TO.N,/FDC_RD*%
X165100000Y-109220000D03*
%TO.P,J3,31,Pin_31*%
%TO.N,unconnected-(J3-Pin_31-Pad31)*%
X162560000Y-111760000D03*
%TO.P,J3,32,Pin_32*%
%TO.N,/HEAD*%
X165100000Y-111760000D03*
%TO.P,J3,33,Pin_33*%
%TO.N,GND*%
X162560000Y-114300000D03*
%TO.P,J3,34,Pin_34*%
%TO.N,unconnected-(J3-Pin_34-Pad34)*%
X165100000Y-114300000D03*
%TD*%
D12*
%TO.P,U1,1,A0*%
%TO.N,/DS0T*%
X139700000Y-81280000D03*
D13*
%TO.P,U1,2,A1*%
%TO.N,/DS1T*%
X139700000Y-83820000D03*
%TO.P,U1,3,A2*%
%TO.N,/MOTOR_ON*%
X139700000Y-86360000D03*
%TO.P,U1,4,E1*%
%TO.N,GND*%
X139700000Y-88900000D03*
%TO.P,U1,5,E2*%
%TO.N,unconnected-(U1-E2-Pad5)*%
X139700000Y-91440000D03*
%TO.P,U1,6,E3*%
%TO.N,Net-(D1-K)*%
X139700000Y-93980000D03*
%TO.P,U1,7,O7*%
%TO.N,Net-(D2-K)*%
X139700000Y-96520000D03*
%TO.P,U1,8,GND*%
%TO.N,GND*%
X139700000Y-99060000D03*
%TO.P,U1,9,O6*%
%TO.N,unconnected-(U1-O6-Pad9)*%
X147320000Y-99060000D03*
%TO.P,U1,10,O5*%
%TO.N,unconnected-(U1-O5-Pad10)*%
X147320000Y-96520000D03*
%TO.P,U1,11,O4*%
%TO.N,unconnected-(U1-O4-Pad11)*%
X147320000Y-93980000D03*
%TO.P,U1,12,O3*%
%TO.N,/DS0*%
X147320000Y-91440000D03*
%TO.P,U1,13,O2*%
%TO.N,/DS1*%
X147320000Y-88900000D03*
%TO.P,U1,14,O1*%
%TO.N,/DS2*%
X147320000Y-86360000D03*
%TO.P,U1,15,O0*%
%TO.N,/DS3*%
X147320000Y-83820000D03*
%TO.P,U1,16,VCC*%
%TO.N,Net-(D1-K)*%
X147320000Y-81280000D03*
%TD*%
D12*
%TO.P,D1,1,K*%
%TO.N,Net-(D1-K)*%
X134620000Y-91440000D03*
D13*
%TO.P,D1,2,A*%
%TO.N,/FDC_IP*%
X134620000Y-81280000D03*
%TD*%
D14*
%TO.P,C1,1*%
%TO.N,Net-(D1-K)*%
X137160000Y-88900000D03*
%TO.P,C1,2*%
%TO.N,GND*%
X137160000Y-98900000D03*
%TD*%
D10*
%TO.P,J2,1,Pin_1*%
%TO.N,GND*%
X152400000Y-73660000D03*
D11*
%TO.P,J2,2,Pin_2*%
%TO.N,unconnected-(J2-Pin_2-Pad2)*%
X154940000Y-73660000D03*
%TO.P,J2,3,Pin_3*%
%TO.N,GND*%
X152400000Y-76200000D03*
%TO.P,J2,4,Pin_4*%
%TO.N,unconnected-(J2-Pin_4-Pad4)*%
X154940000Y-76200000D03*
%TO.P,J2,5,Pin_5*%
%TO.N,unconnected-(J2-Pin_5-Pad5)*%
X152400000Y-78740000D03*
%TO.P,J2,6,Pin_6*%
%TO.N,/DS3*%
X154940000Y-78740000D03*
%TO.P,J2,7,Pin_7*%
%TO.N,unconnected-(J2-Pin_7-Pad7)*%
X152400000Y-81280000D03*
%TO.P,J2,8,Pin_8*%
%TO.N,/FDC_IP*%
X154940000Y-81280000D03*
%TO.P,J2,9,Pin_9*%
%TO.N,unconnected-(J2-Pin_9-Pad9)*%
X152400000Y-83820000D03*
%TO.P,J2,10,Pin_10*%
%TO.N,/DS0*%
X154940000Y-83820000D03*
%TO.P,J2,11,Pin_11*%
%TO.N,unconnected-(J2-Pin_11-Pad11)*%
X152400000Y-86360000D03*
%TO.P,J2,12,Pin_12*%
%TO.N,/DS1*%
X154940000Y-86360000D03*
%TO.P,J2,13,Pin_13*%
%TO.N,GND*%
X152400000Y-88900000D03*
%TO.P,J2,14,Pin_14*%
%TO.N,/DS2*%
X154940000Y-88900000D03*
%TO.P,J2,15,Pin_15*%
%TO.N,GND*%
X152400000Y-91440000D03*
%TO.P,J2,16,Pin_16*%
%TO.N,/MOTOR_ON*%
X154940000Y-91440000D03*
%TO.P,J2,17,Pin_17*%
%TO.N,unconnected-(J2-Pin_17-Pad17)*%
X152400000Y-93980000D03*
%TO.P,J2,18,Pin_18*%
%TO.N,/DIR*%
X154940000Y-93980000D03*
%TO.P,J2,19,Pin_19*%
%TO.N,unconnected-(J2-Pin_19-Pad19)*%
X152400000Y-96520000D03*
%TO.P,J2,20,Pin_20*%
%TO.N,/STEP*%
X154940000Y-96520000D03*
%TO.P,J2,21,Pin_21*%
%TO.N,unconnected-(J2-Pin_21-Pad21)*%
X152400000Y-99060000D03*
%TO.P,J2,22,Pin_22*%
%TO.N,/DATA_WR*%
X154940000Y-99060000D03*
%TO.P,J2,23,Pin_23*%
%TO.N,unconnected-(J2-Pin_23-Pad23)*%
X152400000Y-101600000D03*
%TO.P,J2,24,Pin_24*%
%TO.N,/GATE_WR*%
X154940000Y-101600000D03*
%TO.P,J2,25,Pin_25*%
%TO.N,unconnected-(J2-Pin_25-Pad25)*%
X152400000Y-104140000D03*
%TO.P,J2,26,Pin_26*%
%TO.N,/FDC_T0*%
X154940000Y-104140000D03*
%TO.P,J2,27,Pin_27*%
%TO.N,unconnected-(J2-Pin_27-Pad27)*%
X152400000Y-106680000D03*
%TO.P,J2,28,Pin_28*%
%TO.N,/FDC_WPRT*%
X154940000Y-106680000D03*
%TO.P,J2,29,Pin_29*%
%TO.N,unconnected-(J2-Pin_29-Pad29)*%
X152400000Y-109220000D03*
%TO.P,J2,30,Pin_30*%
%TO.N,/FDC_RD*%
X154940000Y-109220000D03*
%TO.P,J2,31,Pin_31*%
%TO.N,unconnected-(J2-Pin_31-Pad31)*%
X152400000Y-111760000D03*
%TO.P,J2,32,Pin_32*%
%TO.N,/HEAD*%
X154940000Y-111760000D03*
%TO.P,J2,33,Pin_33*%
%TO.N,GND*%
X152400000Y-114300000D03*
%TO.P,J2,34,Pin_34*%
%TO.N,unconnected-(J2-Pin_34-Pad34)*%
X154940000Y-114300000D03*
%TD*%
D15*
%TO.P,J4,1,Pin_1*%
%TO.N,GND*%
X134620000Y-114300000D03*
%TD*%
D16*
%TO.P,J1,1,Pin_1*%
%TO.N,GND*%
X128905000Y-72390000D03*
%TO.P,J1,3,Pin_3*%
X128905000Y-74930000D03*
%TO.P,J1,5,Pin_5*%
X128905000Y-77470000D03*
%TO.P,J1,7,Pin_7*%
X128905000Y-80010000D03*
%TO.P,J1,9,Pin_9*%
X128905000Y-82550000D03*
%TO.P,J1,11,Pin_11*%
X128905000Y-85090000D03*
%TO.P,J1,13,Pin_13*%
X128905000Y-87630000D03*
%TO.P,J1,15,Pin_15*%
X128905000Y-90170000D03*
%TO.P,J1,17,Pin_17*%
X128905000Y-92710000D03*
%TO.P,J1,19,Pin_19*%
X128905000Y-95250000D03*
%TO.P,J1,21,Pin_21*%
X128905000Y-97790000D03*
%TO.P,J1,23,Pin_23*%
X128905000Y-100330000D03*
%TO.P,J1,25,Pin_25*%
X128905000Y-102870000D03*
%TO.P,J1,27,Pin_27*%
X128905000Y-105410000D03*
%TO.P,J1,29,Pin_29*%
X128905000Y-107950000D03*
%TO.P,J1,31,Pin_31*%
X128905000Y-110490000D03*
%TO.P,J1,33,Pin_33*%
X128905000Y-113030000D03*
%TD*%
D17*
%TO.N,GND*%
X128270000Y-72390000D02*
X128270000Y-113030000D01*
D18*
X131445000Y-113030000D02*
X133350000Y-113030000D01*
X131445000Y-113030000D02*
X128270000Y-113030000D01*
X133350000Y-113030000D02*
X134620000Y-114300000D01*
%TD*%
M02*
